<svg xmlns="http://www.w3.org/2000/svg" width="182" height="40" fill="#afaed5" xmlns:v="https://vecta.io/nano"><path d="M87.067 7.539h4.501v21.639h-4.523l-.173-3.138c-.635 1.111-1.493 2.005-2.575 2.683s-2.359 1.017-3.83 1.017a11.39 11.39 0 0 1-4.479-.887 11.83 11.83 0 0 1-3.7-2.51c-1.053-1.067-1.875-2.294-2.467-3.679-.591-1.399-.887-2.9-.887-4.501 0-1.543.288-2.993.866-4.349.577-1.37 1.378-2.568 2.402-3.592a11.27 11.27 0 0 1 3.549-2.402 10.76 10.76 0 0 1 4.35-.887c1.572 0 2.957.361 4.155 1.082a9.58 9.58 0 0 1 3.008 2.727l-.195-3.203zm-6.708 17.852c1.27 0 2.38-.31 3.332-.931.952-.635 1.688-1.486 2.207-2.553.534-1.067.801-2.25.801-3.549 0-1.313-.267-2.503-.801-3.57s-1.277-1.912-2.229-2.532c-.938-.635-2.041-.952-3.311-.952-1.255 0-2.402.318-3.441.952a6.98 6.98 0 0 0-2.467 2.553c-.606 1.068-.909 2.251-.909 3.549 0 1.313.31 2.503.931 3.57.635 1.053 1.464 1.897 2.489 2.532a6.51 6.51 0 0 0 3.397.931zm31.571-17.85h4.501v22.202c0 1.486-.317 2.856-.952 4.111a10.08 10.08 0 0 1-2.532 3.246c-1.067.923-2.293 1.637-3.678 2.142a12.36 12.36 0 0 1-4.306.757 10.28 10.28 0 0 1-4.372-.974 12.09 12.09 0 0 1-3.7-2.597c-1.053-1.096-1.839-2.337-2.359-3.722l4.133-1.861a6.39 6.39 0 0 0 1.385 2.38 7.43 7.43 0 0 0 2.251 1.645 6.23 6.23 0 0 0 2.662.606 7.72 7.72 0 0 0 2.575-.433c.836-.274 1.579-.663 2.228-1.169a5.75 5.75 0 0 0 1.58-1.818c.389-.707.584-1.479.584-2.315v-3.657c-.706 1.097-1.615 1.984-2.726 2.662-1.111.664-2.402.995-3.874.995a10.71 10.71 0 0 1-4.327-.887 11.31 11.31 0 0 1-3.571-2.445 11.65 11.65 0 0 1-2.402-3.636c-.577-1.37-.866-2.842-.866-4.414s.289-3.044.866-4.414a11.32 11.32 0 0 1 2.402-3.635 11.15 11.15 0 0 1 3.571-2.467c1.357-.592 2.798-.887 4.327-.887 1.472 0 2.763.339 3.874 1.017a8.14 8.14 0 0 1 2.726 2.662V7.541zm-6.556 17.852c1.255 0 2.351-.317 3.289-.952.938-.649 1.666-1.508 2.185-2.575s.779-2.236.779-3.505c0-1.298-.266-2.474-.8-3.527-.52-1.068-1.248-1.919-2.186-2.553-.937-.649-2.027-.974-3.267-.974a6.14 6.14 0 0 0-3.333.952 6.99 6.99 0 0 0-2.38 2.553c-.591 1.067-.887 2.251-.887 3.549s.296 2.481.887 3.549a7.16 7.16 0 0 0 2.402 2.553c1.01.62 2.113.93 3.311.93zm25.391 4.348c-1.991 0-3.809-.512-5.453-1.537-1.63-1.024-2.936-2.395-3.917-4.111-.966-1.731-1.45-3.643-1.45-5.734 0-1.587.282-3.066.844-4.436.563-1.385 1.335-2.597 2.316-3.635a10.85 10.85 0 0 1 3.462-2.467c1.313-.591 2.712-.887 4.198-.887 1.991 0 3.801.512 5.431 1.536a11.22 11.22 0 0 1 3.916 4.133c.982 1.731 1.472 3.65 1.472 5.756 0 1.573-.28 3.044-.843 4.414s-1.342 2.582-2.337 3.636a10.78 10.78 0 0 1-3.441 2.445c-1.298.591-2.698.887-4.198.887zm0-4.501c1.197 0 2.272-.317 3.224-.952s1.702-1.472 2.25-2.51a7.14 7.14 0 0 0 .845-3.419c0-1.255-.288-2.409-.867-3.462-.561-1.053-1.319-1.89-2.271-2.51a5.61 5.61 0 0 0-3.181-.952 5.75 5.75 0 0 0-3.224.952 6.88 6.88 0 0 0-2.272 2.532 7.33 7.33 0 0 0-.823 3.441c0 1.284.289 2.445.866 3.484s1.341 1.868 2.294 2.489a5.83 5.83 0 0 0 3.159.909zm14.316 3.938V7.539h4.5v2.294c.75-.894 1.674-1.601 2.77-2.121s2.28-.779 3.549-.779a9.1 9.1 0 0 1 2.403.325l-1.797 4.544a4.67 4.67 0 0 0-1.688-.325 4.99 4.99 0 0 0-2.618.714 5.28 5.28 0 0 0-1.904 1.883c-.477.793-.715 1.674-.715 2.64v12.464h-4.5zm31.545-21.639h4.5v21.639h-4.522l-.173-3.138c-.635 1.111-1.493 2.005-2.575 2.683s-2.358 1.017-3.83 1.017a11.39 11.39 0 0 1-4.48-.887 11.84 11.84 0 0 1-3.7-2.51 11.79 11.79 0 0 1-2.467-3.679c-.591-1.399-.886-2.9-.886-4.501 0-1.543.288-2.993.865-4.349a11.14 11.14 0 0 1 2.401-3.592 11.27 11.27 0 0 1 3.549-2.402 10.76 10.76 0 0 1 4.35-.887c1.573 0 2.957.361 4.155 1.082a9.58 9.58 0 0 1 3.008 2.727l-.195-3.203zm-6.708 17.852c1.27 0 2.38-.31 3.332-.931.953-.635 1.688-1.486 2.208-2.553.533-1.067.8-2.25.8-3.549 0-1.313-.267-2.503-.8-3.57s-1.277-1.912-2.23-2.532c-.937-.635-2.04-.952-3.31-.952a6.48 6.48 0 0 0-3.442.952 6.99 6.99 0 0 0-2.466 2.553c-.606 1.067-.909 2.251-.909 3.549 0 1.313.31 2.503.93 3.57a7.47 7.47 0 0 0 2.489 2.532 6.51 6.51 0 0 0 3.398.931zM27.141.076c-3.12.445-5.673 2.726-6.536 5.827-.171.624-.198.962-.207 2.628-.018 2.521-.198 3.341-1.106 5.123-1.42 2.789-4.252 4.998-7.642 5.978-1.016.285-1.978.445-3.704.606-2.355.223-3.803.82-5.223 2.165-1.169 1.114-1.924 2.423-2.293 4-.243 1.016-.225 2.682.045 3.68a7.99 7.99 0 0 0 5.718 5.72c1.025.276 2.841.276 3.866 0 2.454-.65 4.531-2.486 5.394-4.767.45-1.185.521-1.666.539-3.706.018-1.737.045-1.995.252-2.771.584-2.201 1.474-3.715 3.093-5.256 1.699-1.63 3.758-2.673 6.32-3.207 1.349-.285 3.335-.285 4.747-.009 1.924.383 3.659 1.078 5.187 2.085.926.606 2.58 2.236 3.192 3.136 1.313 1.942 1.852 3.929 1.735 6.361-.036.873-.018 1.319.099 1.933.593 3.1 2.859 5.453 5.988 6.245.98.241 2.661.223 3.668-.036 3.596-.953 5.952-4 5.952-7.689 0-3.02-1.645-5.711-4.315-7.029-1.241-.606-1.897-.766-3.902-.9-.728-.044-1.726-.16-2.203-.25-5.035-.971-8.784-4.552-9.584-9.141-.09-.543-.126-1.31-.117-2.361.018-2.129-.234-3.145-1.133-4.677-.521-.882-1.879-2.209-2.778-2.708-1.591-.891-3.335-1.221-5.053-.98zM47.393.067c-1.681.267-3.12.998-4.315 2.201a7.76 7.76 0 0 0-2.059 3.546c-.279 1.016-.279 2.904 0 3.92.405 1.506 1.142 2.691 2.355 3.822.602.561.917.775 1.735 1.167 1.304.624 2.113.802 3.515.793 1.277-.018 2.14-.214 3.227-.748 1.924-.927 3.308-2.521 4.028-4.633.279-.811.288-.9.297-2.316 0-1.621-.081-2.067-.638-3.27C54.306 1.84 51.771.139 48.804.023c-.495-.018-1.133 0-1.412.045z"/></svg>