<svg xmlns="http://www.w3.org/2000/svg" xmlns:xlink="http://www.w3.org/1999/xlink" width="34" height="34" fill="none" xmlns:v="https://vecta.io/nano"><rect width="34" height="34" rx="4" fill="url(#A)"/><path d="M19.993 7.785C16.188 3.981 9.591 6.65 9.591 12.094v10.834a4.16 4.16 0 0 1 .539-.183c2.318 5.425 8.58 4.488 11.648-.143V12.094c0-1.683-.682-3.206-1.785-4.309z" fill="url(#B)"/><path d="M16.102 8.51c-2.387.754-4.282 2.944-4.282 5.813v5.166c.356.178.742.306 1.147.372.373.061.654.374.654.753v1.218a.77.77 0 0 1-.768.768c-1.481.031-2.18-.126-3.263.326V12.187C9.591 8.841 12.261 6 15.697 6c1.463.003 1.8 2.068.405 2.509z" fill="url(#C)"/><path d="M26 26.823v7.116H7v-7.116c0-2.333 1.891-4.222 4.222-4.222h1.631a.77.77 0 0 0 .768-.768v-1.219c0-.379-.28-.692-.654-.753a4.03 4.03 0 0 1-3.377-3.977V13.46c0-3.591 4.321-5.481 6.88-2.921.729.729 1.18 1.737 1.18 2.85v12.613c1.545-.588 3.027-1.741 4.126-3.401 2.332 0 4.222 1.89 4.222 4.222z" fill="url(#D)"/><path d="M17.652 13.389v12.613c-3.131 1.196-6.115.034-7.521-3.258.348-.093.715-.143 1.092-.143h1.631a.77.77 0 0 0 .768-.768v-1.219c0-.379-.28-.692-.654-.753a4.03 4.03 0 0 1-3.377-3.977V13.46c0-3.591 4.321-5.481 6.88-2.921.729.729 1.18 1.737 1.18 2.85z" fill="url(#E)"/><path d="M15.429 22.434v1.215a.77.77 0 0 1-.766.768c-1.381.002-1.739-.122-2.075.311-.289.373-.858.373-1.178.026-.687-.745-1.085-1.553-1.28-2.009.348-.093.715-.143 1.092-.143h1.631a.77.77 0 0 0 .768-.768v-.538a3.99 3.99 0 0 0 1.171.377c.37.059.637.387.637.761z" fill="url(#F)"/><path d="M14.652 9.492c.922.243.872 1.556-.059 1.765-1.771.4-3.236 2.009-3.194 4.011l.015.729c.002 1.177-1.771 1.231-1.82.055-.005-.124-.003-.022-.003-2.592 0-2.599 2.448-4.658 5.061-3.968z" fill="url(#G)"/><use xlink:href="#N" fill="url(#H)"/><use xlink:href="#N" y="2" fill="url(#H)"/><path d="M6.75 9h-.5C6.112 9 6 8.776 6 8.5s.112-.5.25-.5h.5c.138 0 .25.224.25.5s-.112.5-.25.5z" fill="url(#I)"/><path d="M8.75 9h-.5C8.112 9 8 8.776 8 8.5s.112-.5.25-.5h.5c.138 0 .25.224.25.5s-.112.5-.25.5z" fill="url(#J)"/><path d="M26.5 20a1.5 1.5 0 1 1 0-3 1.5 1.5 0 1 1 0 3zm0-2.143c-.354 0-.643.289-.643.643s.289.643.643.643.643-.289.643-.643-.289-.643-.643-.643z" fill="url(#K)"/><path d="M6 16.5a.5.5 0 1 1-1 0 .5.5 0 1 1 1 0z" fill="url(#L)"/><path d="M25 11.5a.5.5 0 1 1-1 0 .5.5 0 1 1 1 0z" fill="url(#M)"/><defs><linearGradient id="A" x1="17" y1="0" x2="17" y2="34" xlink:href="#O"><stop stop-color="#70cbff"/><stop offset="1" stop-color="#b352ff"/></linearGradient><linearGradient id="B" x1="15.684" y1="6" x2="15.684" y2="26.454" xlink:href="#O"><stop stop-color="#fff"/><stop offset="1" stop-color="#fff" stop-opacity=".33"/></linearGradient><linearGradient id="C" x1="13.29" y1="6" x2="13.29" y2="22.928" xlink:href="#O"><stop stop-color="#fff"/><stop offset="1" stop-color="#fff" stop-opacity="0"/></linearGradient><linearGradient id="D" x1="16.5" y1="9.359" x2="16.5" y2="35.94" xlink:href="#O"><stop stop-color="#fff"/><stop offset="1" stop-color="#fff" stop-opacity=".42"/></linearGradient><linearGradient id="E" x1="13.621" y1="9.359" x2="13.621" y2="26.461" xlink:href="#O"><stop stop-color="#fff"/><stop offset="1" stop-color="#fff" stop-opacity=".24"/></linearGradient><linearGradient id="F" x1="12.78" y1="21.295" x2="12.78" y2="25.01" xlink:href="#O"><stop stop-color="#fff"/><stop offset="1" stop-color="#fff" stop-opacity="0"/></linearGradient><linearGradient id="G" x1="12.454" y1="9.358" x2="12.454" y2="16.908" xlink:href="#O"><stop stop-color="#fff"/><stop offset="1" stop-color="#fff" stop-opacity="0"/></linearGradient><linearGradient id="H" x1="7.5" y1="7" x2="7.5" y2="8" xlink:href="#O"><stop stop-color="#fff"/><stop offset="1" stop-color="#fff" stop-opacity=".33"/></linearGradient><linearGradient id="I" x1="6.5" y1="8" x2="6.5" y2="9" xlink:href="#O"><stop stop-color="#fff"/><stop offset="1" stop-color="#fff" stop-opacity=".33"/></linearGradient><linearGradient id="J" x1="8.5" y1="8" x2="8.5" y2="9" xlink:href="#O"><stop stop-color="#fff"/><stop offset="1" stop-color="#fff" stop-opacity=".33"/></linearGradient><linearGradient id="K" x1="26.5" y1="17" x2="26.5" y2="20" xlink:href="#O"><stop stop-color="#fff"/><stop offset="1" stop-color="#fff" stop-opacity=".26"/></linearGradient><linearGradient id="L" x1="5.5" y1="16" x2="5.5" y2="17" xlink:href="#O"><stop stop-color="#fff"/><stop offset="1" stop-color="#fff" stop-opacity=".36"/></linearGradient><linearGradient id="M" x1="24.5" y1="11" x2="24.5" y2="12" xlink:href="#O"><stop stop-color="#fff"/><stop offset="1" stop-color="#fff" stop-opacity=".26"/></linearGradient><path id="N" d="M7.5 8c-.276 0-.5-.112-.5-.25v-.5c0-.138.224-.25.5-.25s.5.112.5.25v.5c0 .138-.224.25-.5.25z"/><linearGradient id="O" gradientUnits="userSpaceOnUse"/></defs></svg>