<svg xmlns="http://www.w3.org/2000/svg" xmlns:xlink="http://www.w3.org/1999/xlink" width="162" height="34" fill="none" xmlns:v="https://vecta.io/nano"><path d="M53.552 19.744l-1.8-4.664-.168-.48-.168-.592c-.112.432-.227.792-.344 1.08l-1.8 4.656h4.28zM56.784 24h-1.2c-.139 0-.251-.035-.336-.104a.64.64 0 0 1-.192-.264l-1.072-2.768H48.84l-1.072 2.768a.56.56 0 0 1-.184.256.51.51 0 0 1-.336.112h-1.2l4.584-11.464H52.2L56.784 24zm2.9 0h-1.552V12.536h1.552V24zm12.263-4.256l-1.8-4.664-.168-.48-.168-.592c-.112.432-.227.792-.344 1.08l-1.8 4.656h4.28zM75.179 24h-1.2c-.139 0-.251-.035-.336-.104a.64.64 0 0 1-.192-.264l-1.072-2.768h-5.144l-1.072 2.768a.56.56 0 0 1-.184.256.51.51 0 0 1-.336.112h-1.2l4.584-11.464h1.568L75.179 24zm2.333-6.48c.256-.555.571-.987.944-1.296.373-.315.829-.472 1.368-.472.171 0 .333.019.488.056.16.037.301.096.424.176l-.104 1.064c-.032.133-.112.2-.24.2a1.65 1.65 0 0 1-.328-.048 2.26 2.26 0 0 0-.488-.048 1.98 1.98 0 0 0-.688.112 1.62 1.62 0 0 0-.536.336c-.155.144-.296.325-.424.544-.123.213-.235.459-.336.736V24H76.16v-8.104h.816c.155 0 .261.029.32.088s.099.16.12.304l.096 1.232zm6.804 6.608c-.64 0-1.133-.179-1.48-.536-.341-.357-.512-.872-.512-1.544v-4.96h-.976a.33.33 0 0 1-.216-.072c-.059-.053-.088-.133-.088-.24v-.568l1.328-.168.328-2.504a.34.34 0 0 1 .104-.192.32.32 0 0 1 .224-.08h.72v2.792h2.344v1.032h-2.344v4.864c0 .341.083.595.248.76s.379.248.64.248c.149 0 .277-.019.384-.056a1.83 1.83 0 0 0 .288-.136l.2-.128c.059-.043.109-.064.152-.064.075 0 .141.045.2.136l.416.68c-.245.229-.541.411-.888.544a3.07 3.07 0 0 1-1.072.192zm16.716-5.928v4.68c-.587.432-1.213.749-1.88.952a7.41 7.41 0 0 1-2.128.296c-.944 0-1.8-.147-2.568-.44a5.79 5.79 0 0 1-1.96-1.224 5.39 5.39 0 0 1-1.248-1.872c-.293-.725-.44-1.517-.44-2.376 0-.869.141-1.667.424-2.392s.683-1.349 1.2-1.872c.523-.523 1.155-.928 1.896-1.216s1.573-.432 2.496-.432c.469 0 .907.037 1.312.112.411.075.789.179 1.136.312.352.128.672.285.96.472s.552.392.792.616l-.616.976c-.096.155-.221.251-.376.288-.154.032-.322-.008-.504-.12L99 14.656c-.176-.101-.373-.189-.592-.264-.213-.075-.456-.136-.728-.184a5.29 5.29 0 0 0-.928-.072c-.571 0-1.088.096-1.552.288-.459.192-.851.467-1.176.824s-.576.787-.752 1.288-.264 1.061-.264 1.68c0 .661.093 1.253.28 1.776.192.517.459.957.8 1.32.347.357.763.632 1.248.824.485.187 1.027.28 1.624.28.427 0 .808-.045 1.144-.136s.664-.213.984-.368v-2.096h-1.456c-.139 0-.248-.037-.328-.112-.075-.08-.112-.176-.112-.288V18.2h3.84zm6.796.752a2.28 2.28 0 0 0-.112-.72c-.07-.229-.176-.429-.32-.6a1.46 1.46 0 0 0-.552-.4c-.219-.101-.475-.152-.768-.152-.571 0-1.022.163-1.352.488s-.534.787-.624 1.384h3.728zm-3.768 1.192c.032.421.106.787.224 1.096a2.28 2.28 0 0 0 .464.76c.192.197.418.347.68.448a2.58 2.58 0 0 0 .88.144c.32 0 .594-.037.824-.112s.437-.157.608-.248l.456-.248c.133-.075.261-.112.384-.112.165 0 .288.061.368.184l.568.72a3.39 3.39 0 0 1-.736.648c-.272.171-.558.309-.856.416a4.77 4.77 0 0 1-.904.216 6.38 6.38 0 0 1-.888.064c-.571 0-1.102-.093-1.592-.28-.491-.192-.918-.472-1.28-.84-.363-.373-.648-.832-.856-1.376-.208-.549-.312-1.184-.312-1.904 0-.56.09-1.085.272-1.576.181-.496.44-.925.776-1.288.341-.368.754-.659 1.24-.872s1.042-.32 1.656-.32c.517 0 .994.083 1.432.248a3.1 3.1 0 0 1 1.128.728 3.27 3.27 0 0 1 .736 1.168c.181.459.272.984.272 1.576 0 .299-.032.501-.096.608-.064.101-.187.152-.368.152h-5.08zm8.715-3.344c.165-.165.338-.317.52-.456a3.16 3.16 0 0 1 .584-.36 3.05 3.05 0 0 1 .664-.232c.234-.059.49-.088.768-.088.448 0 .845.077 1.192.232.346.149.634.363.864.64.234.272.41.6.528.984a4.08 4.08 0 0 1 .184 1.256V24h-1.976v-5.224c0-.501-.115-.888-.344-1.16-.23-.277-.579-.416-1.048-.416-.342 0-.662.077-.96.232s-.582.365-.848.632V24h-1.976v-8.208h1.208c.256 0 .424.12.504.36l.136.648zm12.311 2.152c0-.256-.037-.496-.112-.72a1.66 1.66 0 0 0-.32-.6 1.46 1.46 0 0 0-.552-.4c-.219-.101-.475-.152-.768-.152-.571 0-1.021.163-1.352.488-.325.325-.533.787-.624 1.384h3.728zm-3.768 1.192c.032.421.107.787.224 1.096a2.28 2.28 0 0 0 .464.76c.192.197.419.347.68.448.267.096.56.144.88.144s.595-.037.824-.112a3.68 3.68 0 0 0 .608-.248l.456-.248c.133-.075.261-.112.384-.112.165 0 .288.061.368.184l.568.72a3.39 3.39 0 0 1-.736.648c-.272.171-.557.309-.856.416-.293.101-.595.173-.904.216a6.38 6.38 0 0 1-.888.064 4.44 4.44 0 0 1-1.592-.28c-.491-.192-.917-.472-1.28-.84-.363-.373-.648-.832-.856-1.376-.208-.549-.312-1.184-.312-1.904 0-.56.091-1.085.272-1.576.181-.496.44-.925.776-1.288.341-.368.755-.659 1.24-.872.491-.213 1.043-.32 1.656-.32.517 0 .995.083 1.432.248a3.1 3.1 0 0 1 1.128.728c.315.315.56.704.736 1.168.181.459.272.984.272 1.576 0 .299-.032.501-.096.608-.064.101-.187.152-.368.152h-5.08zm8.731-2.928c.256-.491.56-.875.912-1.152.352-.283.768-.424 1.248-.424.378 0 .682.083.912.248l-.128 1.48c-.027.096-.067.165-.12.208-.048.037-.115.056-.2.056s-.2-.013-.36-.04c-.155-.027-.307-.04-.456-.04-.219 0-.414.032-.584.096s-.326.157-.464.28a1.9 1.9 0 0 0-.36.432c-.102.171-.198.365-.288.584V24h-1.976v-8.208h1.16c.202 0 .344.037.424.112.08.069.133.197.16.384l.12.928zm8.171 3.28c-.571.027-1.051.077-1.44.152-.389.069-.701.16-.936.272s-.403.243-.504.392-.152.312-.152.488c0 .347.101.595.304.744s.477.224.808.224c.405 0 .755-.072 1.048-.216.299-.149.589-.373.872-.672v-1.384zm-4.528-3.56c.944-.864 2.08-1.296 3.408-1.296.48 0 .909.08 1.288.24.379.155.699.373.96.656.261.277.459.611.592 1 .139.389.208.816.208 1.28V24h-.896c-.187 0-.331-.027-.432-.08-.101-.059-.181-.173-.24-.344l-.176-.592-.608.496c-.197.139-.403.256-.616.352a3.14 3.14 0 0 1-.688.216 3.7 3.7 0 0 1-.8.08c-.347 0-.667-.045-.96-.136-.293-.096-.547-.237-.76-.424s-.379-.419-.496-.696-.176-.6-.176-.968a1.9 1.9 0 0 1 .104-.616c.069-.208.181-.405.336-.592s.365-.363.616-.528.557-.309.92-.432.795-.221 1.28-.296c.485-.08 1.04-.128 1.664-.144v-.48c0-.549-.117-.955-.352-1.216-.235-.267-.573-.4-1.016-.4-.32 0-.587.037-.8.112s-.392.16-.552.256l-.44.248a.84.84 0 0 1-.432.112c-.139 0-.256-.035-.352-.104a.96.96 0 0 1-.232-.256l-.352-.632zm10.784 7.192c-.715 0-1.264-.2-1.648-.6-.379-.405-.568-.963-.568-1.672v-4.584h-.84c-.107 0-.198-.035-.272-.104s-.112-.173-.112-.312v-.784l1.32-.216.416-2.24c.026-.107.077-.189.152-.248a.45.45 0 0 1 .288-.088h1.024v2.584h2.192v1.408h-2.192v4.448c0 .256.061.456.184.6a.66.66 0 0 0 .52.216.98.98 0 0 0 .304-.04c.085-.032.157-.064.216-.096l.168-.088c.048-.032.096-.048.144-.048.058 0 .106.016.144.048a.58.58 0 0 1 .12.128l.592.96c-.288.24-.619.421-.992.544s-.76.184-1.16.184zm6.626-8.464c.608 0 1.16.099 1.656.296.502.197.928.477 1.28.84.358.363.632.805.824 1.328s.288 1.107.288 1.752c0 .651-.096 1.237-.288 1.76s-.466.968-.824 1.336a3.53 3.53 0 0 1-1.28.848c-.496.197-1.048.296-1.656.296s-1.17-.099-1.672-.296-.93-.48-1.288-.848c-.352-.368-.626-.813-.824-1.336-.192-.523-.288-1.109-.288-1.76 0-.645.096-1.229.288-1.752a3.82 3.82 0 0 1 .824-1.328c.358-.363.787-.643 1.288-.84s1.059-.296 1.672-.296zm0 6.936c.683 0 1.187-.229 1.512-.688.331-.459.496-1.131.496-2.016s-.165-1.56-.496-2.024c-.325-.464-.829-.696-1.512-.696-.693 0-1.208.235-1.544.704-.33.464-.496 1.136-.496 2.016s.166 1.552.496 2.016c.336.459.851.688 1.544.688zm7.26-5.384c.256-.491.56-.875.912-1.152.352-.283.768-.424 1.248-.424.379 0 .683.083.912.248l-.128 1.48c-.027.096-.067.165-.12.208-.048.037-.115.056-.2.056-.08 0-.2-.013-.36-.04s-.307-.04-.456-.04c-.219 0-.413.032-.584.096a1.48 1.48 0 0 0-.464.28c-.133.117-.253.261-.36.432-.101.171-.197.365-.288.584V24h-1.976v-8.208h1.16c.203 0 .344.037.424.112.08.069.133.197.16.384l.12.928z" fill="#0a1727"/><rect width="34" height="34" rx="4" fill="url(#A)"/><path d="M19.993 7.785C16.188 3.981 9.591 6.65 9.591 12.094v10.834a4.16 4.16 0 0 1 .539-.183c2.318 5.425 8.58 4.488 11.648-.143V12.094c0-1.683-.682-3.206-1.785-4.309z" fill="url(#B)"/><path d="M16.102 8.51c-2.387.754-4.282 2.944-4.282 5.813v5.166c.356.178.742.306 1.147.372.373.061.654.374.654.753v1.218a.77.77 0 0 1-.768.768c-1.481.031-2.18-.126-3.263.326V12.187C9.591 8.841 12.261 6 15.697 6c1.463.003 1.8 2.068.405 2.509z" fill="url(#C)"/><path d="M26 26.823v7.116H7v-7.116c0-2.333 1.891-4.222 4.222-4.222h1.631a.77.77 0 0 0 .768-.768v-1.219c0-.379-.28-.692-.654-.753a4.03 4.03 0 0 1-3.377-3.977V13.46c0-3.591 4.321-5.481 6.88-2.921.729.729 1.18 1.737 1.18 2.85v12.613c1.545-.588 3.027-1.741 4.126-3.401 2.332 0 4.222 1.89 4.222 4.222z" fill="url(#D)"/><path d="M17.652 13.389v12.613c-3.131 1.196-6.115.034-7.521-3.258.348-.093.715-.143 1.092-.143h1.631a.77.77 0 0 0 .768-.768v-1.219c0-.379-.28-.692-.654-.753a4.03 4.03 0 0 1-3.377-3.977V13.46c0-3.591 4.321-5.481 6.88-2.921.729.729 1.18 1.737 1.18 2.85z" fill="url(#E)"/><path d="M15.429 22.434v1.215a.77.77 0 0 1-.766.768c-1.381.002-1.739-.122-2.075.311-.289.373-.858.373-1.178.026-.687-.745-1.085-1.553-1.28-2.009.348-.093.715-.143 1.092-.143h1.631a.77.77 0 0 0 .768-.768v-.538a3.99 3.99 0 0 0 1.171.377c.37.059.637.387.637.761z" fill="url(#F)"/><path d="M14.652 9.492c.922.243.872 1.556-.059 1.765-1.771.4-3.236 2.009-3.194 4.011l.015.729c.002 1.177-1.771 1.231-1.82.055-.005-.124-.003-.022-.003-2.592 0-2.599 2.448-4.658 5.061-3.968z" fill="url(#G)"/><use xlink:href="#N" fill="url(#H)"/><use xlink:href="#N" y="2" fill="url(#H)"/><path d="M6.75 9h-.5C6.112 9 6 8.776 6 8.5s.112-.5.25-.5h.5c.138 0 .25.224.25.5s-.112.5-.25.5z" fill="url(#I)"/><path d="M8.75 9h-.5C8.112 9 8 8.776 8 8.5s.112-.5.25-.5h.5c.138 0 .25.224.25.5s-.112.5-.25.5z" fill="url(#J)"/><path d="M26.5 20a1.5 1.5 0 1 1 0-3 1.5 1.5 0 1 1 0 3zm0-2.143c-.354 0-.643.289-.643.643s.289.643.643.643.643-.289.643-.643-.289-.643-.643-.643z" fill="url(#K)"/><path d="M6 16.5a.5.5 0 1 1-1 0 .5.5 0 1 1 1 0z" fill="url(#L)"/><path d="M25 11.5a.5.5 0 1 1-1 0 .5.5 0 1 1 1 0z" fill="url(#M)"/><defs><linearGradient id="A" x1="17" y1="0" x2="17" y2="34" xlink:href="#O"><stop stop-color="#70cbff"/><stop offset="1" stop-color="#b352ff"/></linearGradient><linearGradient id="B" x1="15.684" y1="6" x2="15.684" y2="26.454" xlink:href="#O"><stop stop-color="#fff"/><stop offset="1" stop-color="#fff" stop-opacity=".33"/></linearGradient><linearGradient id="C" x1="13.29" y1="6" x2="13.29" y2="22.928" xlink:href="#O"><stop stop-color="#fff"/><stop offset="1" stop-color="#fff" stop-opacity="0"/></linearGradient><linearGradient id="D" x1="16.5" y1="9.359" x2="16.5" y2="35.94" xlink:href="#O"><stop stop-color="#fff"/><stop offset="1" stop-color="#fff" stop-opacity=".42"/></linearGradient><linearGradient id="E" x1="13.621" y1="9.359" x2="13.621" y2="26.461" xlink:href="#O"><stop stop-color="#fff"/><stop offset="1" stop-color="#fff" stop-opacity=".24"/></linearGradient><linearGradient id="F" x1="12.78" y1="21.295" x2="12.78" y2="25.01" xlink:href="#O"><stop stop-color="#fff"/><stop offset="1" stop-color="#fff" stop-opacity="0"/></linearGradient><linearGradient id="G" x1="12.454" y1="9.358" x2="12.454" y2="16.908" xlink:href="#O"><stop stop-color="#fff"/><stop offset="1" stop-color="#fff" stop-opacity="0"/></linearGradient><linearGradient id="H" x1="7.5" y1="7" x2="7.5" y2="8" xlink:href="#O"><stop stop-color="#fff"/><stop offset="1" stop-color="#fff" stop-opacity=".33"/></linearGradient><linearGradient id="I" x1="6.5" y1="8" x2="6.5" y2="9" xlink:href="#O"><stop stop-color="#fff"/><stop offset="1" stop-color="#fff" stop-opacity=".33"/></linearGradient><linearGradient id="J" x1="8.5" y1="8" x2="8.5" y2="9" xlink:href="#O"><stop stop-color="#fff"/><stop offset="1" stop-color="#fff" stop-opacity=".33"/></linearGradient><linearGradient id="K" x1="26.5" y1="17" x2="26.5" y2="20" xlink:href="#O"><stop stop-color="#fff"/><stop offset="1" stop-color="#fff" stop-opacity=".26"/></linearGradient><linearGradient id="L" x1="5.5" y1="16" x2="5.5" y2="17" xlink:href="#O"><stop stop-color="#fff"/><stop offset="1" stop-color="#fff" stop-opacity=".36"/></linearGradient><linearGradient id="M" x1="24.5" y1="11" x2="24.5" y2="12" xlink:href="#O"><stop stop-color="#fff"/><stop offset="1" stop-color="#fff" stop-opacity=".26"/></linearGradient><path id="N" d="M7.5 8c-.276 0-.5-.112-.5-.25v-.5c0-.138.224-.25.5-.25s.5.112.5.25v.5c0 .138-.224.25-.5.25z"/><linearGradient id="O" gradientUnits="userSpaceOnUse"/></defs></svg>