<svg width="65" height="50" viewBox="0 0 65 50" fill="none" xmlns="http://www.w3.org/2000/svg">
<g clip-path="url(#clip0_4244_16321)">
<path d="M11.0385 7.40889C10.3821 9.37983 9.70824 11.2792 8.98795 13.4544C7.91073 12.6115 7.67615 11.4941 7.89684 10.534C8.55889 7.65375 9.29262 4.75656 10.2763 1.95171C10.832 0.345037 12.3178 0.221273 13.428 1.51033C15.3113 3.63838 17.0687 5.87182 18.8978 8.08834C19.0044 8.21451 19.1555 8.36801 19.1458 8.48379C19.1788 8.92999 19.0956 9.3658 19.0569 9.82892C18.6637 9.77042 18.162 9.88887 17.9217 9.68075C17.0673 8.97447 16.3117 8.20703 15.5289 7.48382C15.093 7.0949 14.7287 6.68906 13.8802 6.47321C14.045 7.30447 14.1827 8.17996 14.3475 9.01121C18.4997 26.0395 33.0519 38.0021 50.607 38.9654C52.8697 39.0744 55.1071 38.9245 57.3795 38.9177C58.1756 38.9189 58.9447 38.9644 59.7409 38.9656C59.8204 39.136 59.8281 39.3233 59.9076 39.4937C59.5299 39.8099 59.16 40.3134 58.6854 40.3876C57.1357 40.7156 55.586 41.0436 53.9839 41.157C38.0526 42.3453 22.4896 33.2317 15.2556 18.3307C13.8778 15.478 13.0113 12.3911 11.9473 9.42647C11.7187 8.79947 11.6062 8.18286 11.4492 7.53893C11.3872 7.44007 11.2264 7.40236 11.0385 7.40889Z" fill="#0A1727"/>
</g>
<defs>
<clipPath id="clip0_4244_16321">
<rect width="62" height="20" fill="white" transform="translate(11.3545 0.0664062) rotate(31.5068)"/>
</clipPath>
</defs>
</svg>
