<svg xmlns="http://www.w3.org/2000/svg" width="180" height="40" fill="none" xmlns:v="https://vecta.io/nano"><g clip-path="url(#A)" fill="#afaed5"><path d="M161.108 31.915h6.467c.251.82 1.105 1.64 2.703 1.64 2.166 0 2.912-1.352 2.912-3.352v-1.424h-.144c-1.068 1.252-2.488 2.172-4.582 2.172-4.122 0-7.707-3.064-7.707-9.056 0-5.488 2.947-9.768 7.392-9.768 2.56 0 4.123 1.036 5.155 2.676h.108v-2.1h6.395v16.608c0 3.064-1.068 5.452-2.667 6.883-1.67 1.496-4.051 2.1-6.754 2.1-5.084 0-8.633-2.107-9.278-6.38zm12.368-10.343c0-2.388-1.133-4.316-3.09-4.316-1.886 0-3.09 1.712-3.09 4.316 0 2.568 1.211 4.416 3.09 4.416 1.95.007 3.09-1.884 3.09-4.416zm-19.861-5.596h.108c1.384-2.676 3.198-3.668 5.506-3.668.531 0 .89.072 1.105.18v5.883h-.144c-3.943-.712-6.252 1.18-6.252 5.488v8.02h-6.718V12.703h6.395v3.273zM.8 5h13.15c2.488 0 4.402.604 5.758 1.712 1.527 1.244 2.345 3.1 2.345 5.308 0 2.568-1.032 4.172-3.162 5.172v.108c2.775.928 4.374 3.424 4.374 6.452 0 2.884-1.104 5.136-2.911 6.488-1.527 1.108-3.513 1.64-6.145 1.64H.8V5zm12.512 20.923c1.599 0 2.768-.964 2.768-2.748 0-1.856-1.276-2.748-2.803-2.748H8.085v5.488h5.227v.007zm-.681-10.408c1.42 0 2.452-.784 2.452-2.352 0-1.532-1.068-2.28-2.488-2.28h-4.51v4.632h4.546zM24.469 5h6.89v26.879h-6.89V5zm8.21 17.32c0-6.056 3.908-10.156 9.952-10.156s9.88 4.1 9.88 10.156c0 6.099-3.836 10.156-9.88 10.156-6.044.007-9.952-4.057-9.952-10.156zm13.007 0c0-3.352-1.068-5.452-3.126-5.452s-3.054 2.1-3.054 5.452c0 3.388.997 5.488 3.054 5.488 2.058.007 3.126-2.1 3.126-5.488zm7.607 0c0-6.056 3.908-10.156 9.952-10.156s9.88 4.1 9.88 10.156c0 6.099-3.836 10.156-9.88 10.156-6.044.007-9.952-4.057-9.952-10.156zm13.006 0c0-3.352-1.068-5.452-3.126-5.452s-3.054 2.1-3.054 5.452c0 3.388.997 5.488 3.054 5.488 2.058.007 3.126-2.1 3.126-5.488zm8.138-9.617h6.396v2.884h.108c1.276-2.244 3.018-3.46 5.757-3.46 2.416 0 4.23 1.208 5.155 3.316h.108c1.563-2.532 3.592-3.316 5.937-3.316 4.445 0 6.36 3.28 6.36 7.696v12.048h-6.719V21.04c0-1.964-.602-3.244-2.309-3.244-1.671 0-2.524 1.568-2.524 3.639v10.444H85.98V21.04c0-1.964-.602-3.244-2.309-3.244-1.671 0-2.524 1.568-2.524 3.639v10.444h-6.711V12.703zm38.023 16.68h-.071v2.496h-6.396V5h6.718v9.696h.108c1.276-1.676 2.982-2.568 5.435-2.568 4.796 0 7.571 4.352 7.571 10.12 0 6.524-3.018 10.264-7.994 10.264-2.065.007-4.195-.993-5.371-3.129zm6.539-7.2c0-3.1-1.133-5.1-3.162-5.1-2.057 0-3.377 2-3.377 5.1 0 3.064 1.312 5.1 3.377 5.1 2.058-.007 3.162-2 3.162-5.1zm7.679.072c0-5.991 3.944-10.156 9.666-10.156 2.839 0 5.047.892 6.718 2.496 2.201 2.136 3.198 5.488 3.126 9.444H133.36c.287 2.388 1.42 3.603 3.449 3.603 1.176 0 2.201-.532 2.631-1.82h6.467c-1.132 4.38-4.51 6.596-9.306 6.596-5.944-.007-9.924-4.035-9.924-10.163zm6.683-2h6.109c-.108-2.316-1.384-3.532-2.983-3.532-1.85 0-2.882 1.323-3.126 3.532z"/></g><defs><clipPath id="A"><path fill="#fff" transform="translate(.8)" d="M0 0h179v40H0z"/></clipPath></defs></svg>