<svg xmlns="http://www.w3.org/2000/svg" width="243" height="40" fill="#afaed5" xmlns:v="https://vecta.io/nano"><path d="M94.985 3.655a3.64 3.64 0 0 1 1.078-2.585C96.753.385 97.69 0 98.666 0a3.69 3.69 0 0 1 2.602 1.071 3.64 3.64 0 0 1 1.078 2.585c-.035.946-.439 1.841-1.125 2.498s-1.602 1.023-2.555 1.023a3.7 3.7 0 0 1-2.555-1.023c-.686-.656-1.09-1.552-1.125-2.498zM34.579 26.446c-3.168 0-5.372-2.5-5.372-6.073s2.204-6.068 5.375-6.068c3.186 0 5.413 2.497 5.413 6.068 0 3.63-2.179 6.073-5.416 6.073zm0-17.479c-6.705 0-11.573 4.798-11.573 11.406s4.87 11.406 11.573 11.406c6.733 0 11.619-4.795 11.619-11.403S41.313 8.967 34.582 8.967h-.002zm53.277 11.978a5.44 5.44 0 0 0-.877-1.229l-.205-.211.215-.204c.308-.323.623-.705.925-1.148l5.921-8.736H86.65l-4.447 6.834c-.251.367-.759.55-1.52.55H79.67V3.882c0-2.584-1.622-2.935-3.373-2.935h-2.999l.008 30.496h6.367v-9.148h.597c.725 0 1.217.084 1.446.476l3.511 6.582c.982 1.787 1.958 2.09 3.799 2.09h4.878l-3.634-5.966-2.409-4.531h-.003zm30.906-12.029c-3.24 0-5.306 1.43-6.464 2.64l-.384.387-.139-.527c-.338-1.296-1.486-2.006-3.211-2.006h-2.853l.018 22.025h6.323V21.284c0-.993.128-1.853.395-2.639.702-2.38 2.665-3.859 5.118-3.859 1.974 0 2.745 1.036 2.745 3.709v9.593c0 2.281 1.064 3.347 3.363 3.347h3.009l-.01-14.01c0-5.564-2.735-8.507-7.91-8.507v-.003zm-20.02.501h-2.996l.02 17.031v4.994h3.196l.113.005 1.492-.005h1.481v-.008h.01l.013-18.67c0-2.253-1.084-3.345-3.327-3.345l-.003-.003zM59.414 26.446c-3.168 0-5.375-2.5-5.375-6.073s2.207-6.068 5.378-6.068c3.178 0 5.413 2.497 5.413 6.068 0 3.63-2.179 6.073-5.413 6.073h-.003zm0-17.479c-6.71 0-11.58 4.798-11.58 11.406s4.87 11.406 11.583 11.406c6.723 0 11.619-4.795 11.619-11.403S66.139 8.967 59.416 8.967m80.588 16.509c-3.458 0-4.688-2.993-4.688-5.801 0-1.237.315-5.266 4.357-5.266 2.007 0 4.681.57 4.681 5.472 0 4.625-2.366 5.595-4.35 5.595zm7.633-16.117c-1.2 0-2.122.476-2.586 1.344l-.174.336-.293-.255c-1.02-.876-2.85-1.917-5.821-1.917-5.913 0-9.893 4.411-9.893 10.97s4.119 11.138 10.011 11.138c2.012 0 3.604-.468 4.865-1.415l.487-.364v.611c0 2.943-1.915 4.566-5.388 4.566-1.689 0-3.224-.407-4.254-.779-1.338-.402-2.128-.069-2.669 1.268l-.502 1.232-.71 1.802.438.232C133.373 39.3 136.267 40 138.881 40c5.383 0 11.673-2.736 11.673-10.439l.023-20.202h-2.94zM11.034 26.194l-5.147-.005V20.08c0-1.308.51-1.985 1.635-2.143h3.511c2.504 0 4.124 1.568 4.127 4.106-.003 2.606-1.582 4.149-4.127 4.149v.002zM5.888 8.102c0-1.408.6-2.077 1.915-2.164h2.635c2.258 0 3.611 1.341 3.611 3.589 0 1.71-.928 3.709-3.529 3.709H5.888V8.102zm11.719 7.707l-.931-.519.813-.69c.946-.807 2.527-2.622 2.527-5.752 0-4.795-3.742-7.891-9.537-7.891H3.112a3.24 3.24 0 0 0-2.194.965C.339 2.511.01 3.3 0 4.123v27.21h10.609c6.441 0 10.599-3.482 10.599-8.876 0-2.904-1.343-5.386-3.601-6.648zm135.452 12.223a3.67 3.67 0 0 1 3.673-3.668 3.7 3.7 0 0 1 2.609 1.074 3.65 3.65 0 0 1 0 5.183c-.692.687-1.631 1.074-2.609 1.074-2.025 0-3.673-1.642-3.673-3.665m41.881-1.584c-3.168 0-5.377-2.5-5.377-6.073s2.209-6.068 5.377-6.068c3.184 0 5.416 2.497 5.416 6.068 0 3.63-2.178 6.073-5.416 6.073zm0-17.479c-6.71 0-11.577 4.798-11.577 11.406s4.867 11.406 11.577 11.406c6.726 0 11.619-4.795 11.619-11.403S201.663 8.967 194.94 8.967z"/><path d="M234.802 8.99a8.76 8.76 0 0 0-3.767.866c-1.175.565-2.207 1.385-3.02 2.4l-.456.575-.359-.644c-1.174-2.12-3.188-3.197-5.99-3.197-2.94 0-4.911 1.629-5.826 2.596l-.6.644-.23-.848c-.334-1.222-1.428-1.891-3.084-1.891h-2.658l-.026 21.941h6.037v-9.685c0-.85.107-1.688.32-2.566.577-2.342 2.161-4.859 4.824-4.607 1.64.158 2.445 1.418 2.445 3.851v13.007h6.08v-9.685c0-1.061.1-1.856.341-2.65.487-2.235 2.143-4.526 4.711-4.526 1.861 0 2.548 1.044 2.548 3.854v9.8c0 2.214.994 3.207 3.227 3.207h2.84l.005-14.007c0-5.597-2.481-8.435-7.362-8.435zm-54.938 14.824c-.018.023-2.614 2.741-6.036 2.741-3.117 0-6.264-1.899-6.264-6.137 0-3.66 2.44-6.218 5.936-6.218 1.133 0 2.425.402 2.627 1.082l.028.114a2.2 2.2 0 0 0 .8 1.174 2.23 2.23 0 0 0 1.353.448l3.307.005v-2.871c0-3.787-4.852-5.162-8.115-5.162-6.982 0-12.047 4.826-12.047 11.474 0 6.643 5.008 11.464 11.919 11.464 5.992 0 9.253-3.912 9.283-3.95l.175-.214-2.62-4.314-.346.364z"/></svg>