<svg xmlns="http://www.w3.org/2000/svg" width="169" height="40" fill="none" xmlns:v="https://vecta.io/nano"><g clip-path="url(#A)"><path d="M144.033 39.049h6.51V25.298c0-3.28 1.495-7.405 6.405-7.405 3.309 0 4.802 1.587 4.802 5.289v15.866h6.51V21.333c0-7.775-5.283-9.679-9.871-9.679-3.684 0-6.299 1.428-7.739 3.28h-.107V.335h-6.51v38.714zm-2.028-19.78c-1.653-4.019-4.856-7.616-11.42-7.616-8.751 0-13.821 6.029-13.821 14.014s5.07 14.016 13.34 14.016c7.313 0 10.407-4.283 12.221-8.198l-5.55-2.907c-1.014 2.432-2.668 5.182-6.562 5.182-4.537 0-6.619-3.912-6.619-8.092s2.348-8.091 6.991-8.091c2.561 0 4.856 1.639 5.711 4.284l5.709-2.592zM94.636 22.23c.694-2.855 3.203-5.288 6.99-5.288 4.376 0 6.136 3.86 6.136 5.288H94.636zm19.958 4.972c0-9.574-3.949-15.549-12.968-15.549-8.752 0-13.822 6.029-13.822 14.014s5.069 14.016 13.822 14.016c7.363 0 11.26-3.489 13.288-6.557l-5.496-3.172c-.642.898-2.67 3.806-7.792 3.806-3.522 0-6.884-2.59-6.99-6.557h19.958zM75.14 6.46v26.454c0 4.073 1.815 6.452 7.15 6.452 2.029 0 3.629-.317 5.178-.634v-5.289c-.961.106-1.975.317-2.883.317-2.508 0-2.935-1.163-2.935-3.278V16.942h5.818v-4.655H81.65V0l-6.51 6.46zM64.232 39.049h6.51V.335h-6.51v38.714zm-11.171-9.572c0 3.437-3.895 4.919-6.938 4.919-2.348 0-4.215-1.324-4.215-3.333 0-2.538 2.028-3.226 4.482-3.701l3.575-.741c1.175-.211 2.243-.529 3.096-.953v3.81zm6.51-9.044c0-7.616-5.816-8.78-11.634-8.78-5.923 0-11.527 2.432-11.527 8.727l6.512.265c0-2.909 1.227-4.019 5.015-4.019 2.828 0 5.124.74 5.124 3.384v.793c-1.654.582-4.697 1.111-7.045 1.587l-2.722.529c-4.001.793-8.218 3.122-8.218 8.357 0 5.182 4.056 8.408 9.179 8.408 3.362 0 6.297-1.057 8.805-3.066 0 .688.213 1.798.64 2.432h6.884c-.373-.582-1.014-1.745-1.014-4.496v-14.12zm-25.476-8.146C32.281 4.408 26.463.441 18.832.441 7.466.441.818 9.59.818 20.22S6.666 40 18.832 40c7.578 0 12.648-3.649 15.689-11.211l-6.51-2.963c-1.388 4.39-4.216 7.616-9.179 7.616-7.578 0-10.726-6.663-10.726-13.222S11.254 7 18.832 7c4.323 0 7.791 2.855 8.379 7.034l6.884-1.746z" fill="#afaed5"/></g><defs><clipPath id="A"><path fill="#fff" transform="translate(.818)" d="M0 0h167.442v40H0z"/></clipPath></defs></svg>