<svg xmlns="http://www.w3.org/2000/svg" width="163" height="40" fill="none" xmlns:v="https://vecta.io/nano"><path d="M74.308 19.349c5.112-1.692 6.039-5.959 6.029-9.437-.01-5.317-3.781-9.908-14.941-9.908L44.563 0v39.916h20.776c11.23 0 15.36-5.732 15.36-11.474 0-6.954-6.39-9.093-6.39-9.093zM54.451 8.685h14.026l.049.01c1.582.278 2.735 1.616 2.735 3.186 0 1.608-1.235 3.122-2.866 3.343l-13.938.022-.006-6.561zm13.35 21.928h-13.35v-6.68h13.677l.031.004c1.701.192 2.992 1.6 2.992 3.27 0 1.825-1.527 3.382-3.349 3.406zM127.348.008h35.203l-.02 8.709h-25.4l.024 6.435h22.899v8.756h-22.899v6.962h25.404l-.006 9.13h-35.205M106.871.057H85.583v39.93h9.775V23.83l10.767-.01c3.083.047 5.481 2.557 5.481 5.654v10.477l9.567-.004-.017-12.884c0-5.971-5.8-7.736-5.8-7.736s5.93-1.761 5.93-8.819c0-8.638-7.461-10.45-14.415-10.45zm5.337 12.387c-.177 1.314-1.496 2.738-3.144 2.738l-13.741.004V8.795h13.745c1.644 0 2.93 1.199 3.14 2.779M38.226 30.339c-.138.002-13.362.255-17.928-.186-7.348-.715-9.954-6.132-9.954-10.55 0-5.515 3.779-9.569 9.631-10.33 2.786-.364 18.008-.192 18.171-.192l.319.006.033-9.081h-.322L20.942.039c-1.919.116-5.1.308-8.359 1.633-3.125 1.426-5.85 3.617-7.882 6.341-2.589 3.466-3.96 7.583-3.96 11.899a23.96 23.96 0 0 0 .329 4.001c1.239 6.053 5.232 11.065 10.954 13.758 1.931.846 4.913 1.857 10.921 2.195l3.239.067 12.011.01h.318l.033-9.608" fill="#afaed5"/></svg>