<svg xmlns="http://www.w3.org/2000/svg" width="72" height="40" fill="none" xmlns:v="https://vecta.io/nano"><g clip-path="url(#B)"><mask id="A" maskUnits="userSpaceOnUse" x="0" y="-1" width="72" height="41"><path d="M.936 39.9h70.839V-.098H.936V39.9z" fill="#fff"/></mask><g mask="url(#A)"><path d="M67.702-.07H5.009C2.763-.07.935 1.745.935 3.974V35.9c0 2.13 1.682 3.901 3.827 4.03l63.159.002.034-.002c2.146-.129 3.826-1.9 3.826-4.04V3.979c0-2.229-1.827-4.044-4.073-4.044" fill="#fff"/><path d="M2.1 32.902h68.584v2.924H2.1v-2.924z" fill="#afaed5"/><path d="M2.1 29.944h68.584v2.975H2.1v-2.975zm2.763 8.874h63.05c1.542-.093 2.767-1.36 2.767-2.914v-.01H2.096v.01c0 1.554 1.225 2.821 2.767 2.914z" fill="#b3bede"/><path d="M67.702 1.013H5.009c-1.627 0-2.946 1.31-2.946 2.926v26.016h68.584V3.939c0-1.616-1.318-2.926-2.945-2.926z" fill="#afaed5"/><path d="M28.428 15.298c.829.824 1.22 1.737 1.22 2.768 0 .985-.427 1.931-1.098 2.666-.724.807-1.785 1.262-2.967 1.262-1.116 0-2.069-.317-2.863-1.262-.777-.913-.955-1.648-.955-2.718 0-.841.426-2.067 1.484-2.908.866-.704 1.788-.843 2.508-.843 1.185 0 2.069.459 2.671 1.035zm-.937 2.716c0-1.928-1.026-3.052-1.84-3.052-.457 0-.81.144-1.111.479-.549.613-.761 1.347-.761 2.625 0 1.018.071 1.684.55 2.436.299.475.689.757 1.393.757 1.166 0 1.768-1.456 1.768-3.245zm18.392-.119c0 1.789 1.289 2.84 2.296 2.84 1.096 0 1.765-.458 2.138-1.017.073-.123.143-.123.215-.087l.262.157c.089.052.124.123 0 .351-.371.667-1.271 1.859-3.215 1.859-1.132 0-1.927-.245-2.544-.945-.813-.931-.991-1.807-.991-2.893 0-.962.109-1.614.868-2.596.74-.945 1.535-1.298 3.074-1.298 2.014 0 2.669 2.087 2.669 2.808 0 .262-.178.281-.497.281h-4.275v.542zm2.191-1.174c.37 0 .584-.105.584-.246 0-.525-.177-1.56-1.095-1.56-.867 0-1.399.632-1.626 1.806h2.138zm4.718.525c0-.808-.14-1.086-.671-1.367l-.317-.176c-.104-.036-.14-.069-.14-.142v-.105c0-.069.036-.103.14-.157l2.137-1c.107-.034.177-.07.284-.07s.14.107.159.213l.158 1.261h.071c.6-.982 1.343-1.579 2.119-1.579.566 0 .919.389.919.878s-.495.947-.954.947c-.248 0-.46-.069-.602-.139-.139-.106-.316-.142-.493-.142-.211 0-.528.142-.741.509a1.99 1.99 0 0 0-.213.86v3.381c0 .561.143.737.495.737h.78c.104 0 .14.034.14.12v.407c0 .087-.036.123-.124.123-.124 0-.901-.053-2.193-.053l-2.064.053c-.09 0-.125-.036-.125-.123v-.385c0-.108.035-.142.157-.142h.621c.282 0 .457-.139.457-.474v-3.434zm5.382 2.309c-.017-.071 0-.125.051-.142l.337-.103c.071-.019.124-.019.159.052l.582.981c.32.528.655.944 1.522.944.69 0 1.254-.416 1.254-1.068 0-.701-.46-1.019-1.695-1.367-1.202-.349-2.158-.946-2.158-2.192 0-.769.284-1.401.902-1.84.617-.419 1.114-.579 1.837-.579.865 0 1.396.213 1.715.387.264.139.316.211.334.312l.233 1.195c.015.07.015.157-.018.193l-.337.157c-.052.017-.105 0-.14-.071l-.85-.946c-.212-.227-.53-.54-1.111-.54-.654 0-1.22.384-1.22.998 0 .719.532.931 1.591 1.208.815.209 1.311.421 1.769.911.389.386.529.807.529 1.405 0 1.471-1.202 2.523-2.949 2.523-.939 0-1.714-.298-1.911-.455-.069-.072-.121-.123-.14-.192l-.282-1.77zm-14.837 1.587h-.707c-.177 0-.249-.139-.282-.456-.037-.211-.037-.844-.037-1.51v-1.89l.037-2.856c.017-.143-.037-.213-.143-.213s-.246.036-.423.107l-2.297.841c-.09.035-.125.071-.125.14v.194c0 .068.017.122.178.157.813.212.92.561.92 1.087v2.473l-.036 1.576c-.018.283-.106.351-.282.351 0 0-.127.026-.875.026-.754 0-.954-.026-.954-.026-.388 0-.422-.246-.458-.564-.036-.524-.036-2.311-.036-3.117v-2.527l.072-5.555c0-.246-.072-.315-.177-.315-.073 0-.177.033-.388.104-.567.351-1.945.807-2.65 1.017-.11.035-.141.103-.141.139v.209c0 .074 0 .107.105.145l.353.103c.565.175.865.456.9 1.051.035.456.072 1.962.072 3.19v5.489c0 .491-.267.63-.441.63 0 0-.266.026-.913.026s-.901-.026-.901-.026c-.391 0-.427-.246-.462-.564-.036-.524-.036-2.311-.036-3.117v-2.527l.07-5.555c0-.246-.07-.315-.174-.315-.071 0-.176.033-.39.104-.567.351-1.942.807-2.65 1.017-.107.035-.143.103-.143.139v.209c0 .074 0 .107.108.145l.352.103c.566.175.864.456.901 1.051.036.456.071 1.962.071 3.19v5.489c0 .491-.265.63-.442.63h-.673c-.21 0-.245.034-.245.142v.332c0 .105.036.175.141.175l6.79-.032 6.446.032c.107 0 .143-.071.143-.175v-.354c0-.087-.036-.12-.177-.12zm-22.473-1.876l-.334-.306c-.02-.022-.081-.003-.1.019-.785.988-2.246 1.842-4.071 1.842-.848 0-1.873-.141-3.037-1.369-1.309-1.403-1.628-3.47-1.628-4.558 0-2.521 1.167-5.047 3.992-5.047 1.381 0 2.3.56 3.077 1.296a6.23 6.23 0 0 1 1.378 2.277c.052.141.106.211.193.178l.335-.105c.071-.018.089-.072.071-.178l-.424-3.641c0-.247-.034-.283-.248-.283s-.249 0-.281.108l-.144.453c-.033.139-.105.139-.353 0-.635-.348-1.943-.841-3.569-.841-2.12 0-3.639.841-4.594 1.858-1.237 1.333-1.802 2.98-1.802 4.697 0 1.543.601 3.576 1.908 4.734 1.098.981 2.368 1.648 4.631 1.648 2.326 0 3.95-1.237 5.022-2.617.02-.029.028-.118-.025-.165zm21.382-7.287c0 .589-.482 1.068-1.078 1.068a1.07 1.07 0 0 1-1.077-1.068c0-.59.48-1.071 1.077-1.071s1.078.48 1.078 1.071z" fill="#fff"/></g></g><defs><clipPath id="B"><path fill="#fff" transform="translate(.947)" d="M0 0h70.833v40H0z"/></clipPath></defs></svg>