<svg xmlns="http://www.w3.org/2000/svg" width="99" height="40" fill="#afaed5" xmlns:v="https://vecta.io/nano"><path d="M82.39 22.361a1.07 1.07 0 0 1 1.064 1.064 1.07 1.07 0 0 1-1.064 1.064 1.07 1.07 0 0 1-1.064-1.064 1.06 1.06 0 0 1 1.064-1.064zm0 1.945c.482 0 .864-.382.864-.898 0-.499-.382-.898-.864-.898s-.864.399-.864.898.366.898.864.898zm-.166-.715v.465h-.316V22.76h.466c.366 0 .515.133.515.366 0 .166-.083.299-.266.366.05.017.067.066.1.116l.266.449h-.299c-.05 0-.067-.017-.083-.05l-.2-.382c-.017-.033-.033-.05-.083-.05h-.1v.017zm0-.216h.133c.2 0 .249-.066.249-.183s-.033-.183-.216-.183h-.15v.366h-.017zM3.021 16.209c1.829 0 3.042 1.047 3.042 2.627 0 1.646-1.28 2.743-3.175 2.743H1.275v2.411H.195v-7.78h2.826zm-.05 4.372c1.197 0 1.995-.698 1.995-1.729 0-.981-.798-1.629-1.995-1.629H1.275v3.358h1.696zm5.221-1.148c.499-.565 1.18-.914 2.012-.914v.998a2.42 2.42 0 0 0-2.012 1.047v3.425H7.145v-5.353h1.047v.798zm8.277 2.295l-.017-.017v.017H12.13c.15.831.748 1.513 1.795 1.513.632 0 1.081-.249 1.313-.665h1.131c-.316.948-1.264 1.563-2.477 1.563-1.679 0-2.81-1.23-2.81-2.81 0-1.596 1.13-2.826 2.81-2.826 1.513 0 2.594 1.147 2.61 2.76 0 .166 0 .316-.033.466zm-4.356-.781h3.308c-.1-.914-.682-1.529-1.596-1.529-.964 0-1.563.665-1.712 1.529zm14.215.032v3.026h-1.047v-2.959c0-1.014-.532-1.596-1.413-1.596-.532 0-1.047.249-1.463.881.05.2.067.432.067.665v3.026h-1.047v-2.959c0-1.014-.532-1.596-1.413-1.596-.499 0-.997.283-1.396.864v3.707h-1.047v-5.353h1.047v.482c.399-.416.864-.648 1.596-.648.748 0 1.396.316 1.796.898.565-.582 1.164-.898 2.078-.898 1.28-.05 2.244.931 2.244 2.46zm1.715-4.323a.66.66 0 0 1 .682-.665.66.66 0 0 1 .682.665.67.67 0 0 1-.682.665.66.66 0 0 1-.682-.665zm1.214 7.348H28.21v-5.353h1.047v5.353zm2.358-1.727c.133.682.648 1.047 1.529 1.047.748 0 1.264-.299 1.264-.781 0-.382-.316-.615-.798-.698l-1.197-.2c-.848-.133-1.596-.532-1.596-1.496 0-1.014.898-1.646 2.194-1.646 1.014 0 2.228.399 2.344 1.746l-.981.017c-.083-.632-.615-.931-1.363-.931s-1.164.316-1.164.732c0 .332.233.615.898.715l1.031.166c.798.133 1.596.499 1.596 1.513 0 1.097-.981 1.712-2.311 1.712-1.313 0-2.344-.565-2.494-1.912l1.047.017zm10.224-.549l-.017-.017v.017H37.5c.15.831.748 1.513 1.795 1.513.632 0 1.081-.249 1.313-.665h1.13c-.316.948-1.264 1.563-2.477 1.563-1.679 0-2.81-1.23-2.81-2.81 0-1.596 1.131-2.826 2.81-2.826 1.513 0 2.593 1.147 2.61 2.76l-.033.466zm-4.356-.781h3.308c-.1-.914-.682-1.529-1.596-1.529-.964 0-1.579.665-1.712 1.529zm15.114 3.059H51.5v-3.342h-4.289v3.342H46.13v-7.797h1.081v3.441H51.5v-3.441h1.097v7.797zm6.683-2.278l-.017-.017v.017h-4.322c.15.831.748 1.513 1.796 1.513.632 0 1.081-.249 1.313-.665h1.13c-.316.948-1.263 1.563-2.477 1.563-1.679 0-2.809-1.23-2.809-2.81 0-1.596 1.13-2.826 2.81-2.826 1.513 0 2.593 1.147 2.61 2.76l-.033.466zm-4.356-.781h3.308c-.1-.914-.682-1.529-1.596-1.529-.964 0-1.579.665-1.712 1.529zm10.971 3.058h-1.047v-.465c-.466.382-1.081.615-1.795.615-1.513 0-2.726-1.247-2.726-2.81s1.214-2.826 2.726-2.826c.715 0 1.33.233 1.795.615v-.466h1.047v5.337zm-1.047-1.646v-2.078c-.416-.615-.998-.864-1.646-.864-1.047 0-1.829.864-1.829 1.895 0 1.014.781 1.895 1.829 1.895a1.83 1.83 0 0 0 1.646-.848zm3.774 1.646h-1.047v-8.146h1.047v8.146zm5.37-.033c-.532.166-.831.2-1.247.2-1.247 0-1.978-.781-1.978-2.161v-2.477h-1.313v-.881h1.313v-1.978h1.047v1.978h2.012v.881h-2.012v2.477c0 .831.382 1.197 1.114 1.197a3.36 3.36 0 0 0 .898-.133l.166.898zm6.351-2.993v3.026h-1.047v-2.959c0-1.014-.565-1.596-1.48-1.596-.565 0-1.164.316-1.596.898v3.674h-1.047v-8.163h1.047v3.325c.482-.449 1.097-.715 1.812-.715 1.38 0 2.311.981 2.311 2.51zm11.389 7.283L81.109 10.873l17.838 10.224-7.215 7.165z"/><path d="M92.131 34.696l-.632-6.201 7.448-7.398-6.816 13.599zm.532-17.207L98.083 0 81.109 10.873l11.554 6.617z"/><path d="M86.96 32.984l4.539-4.489L92.679 40l-5.719-7.016z"/></svg>