<svg width="257" height="166" viewBox="0 0 257 166" fill="none" xmlns="http://www.w3.org/2000/svg">
<path d="M49.4023 62.5341L49.7853 94.1948C49.7853 95.5282 51.0477 96.5921 52.5513 96.5779L62.7644 96.4786C64.5943 96.4786 65.4879 95.5707 65.4737 94.0388L64.8496 42.6044C64.8496 41.271 63.5872 40.2071 62.0836 40.2213L43.1751 40.4057C41.5296 40.4057 40.636 41.2284 40.2814 42.6044L34.0826 66.052C33.9124 66.8605 33.1889 66.8605 32.9903 66.052L26.2241 42.732C25.8412 41.3703 24.9333 40.5759 23.2737 40.5901L4.37942 40.7745C2.87582 40.7745 1.65592 41.8667 1.67011 43.2143L2.29424 94.6487C2.29424 96.1665 3.23044 97.046 5.06029 97.0318L15.2734 96.9325C17.1033 96.9325 17.9969 96.0247 17.9827 94.4927L17.5997 62.832C17.5997 62.2646 18.4083 62.1795 18.6069 62.7327L27.8412 94.7196C28.2242 96.0814 29.2313 96.8048 30.8768 96.7906L36.9054 96.7339C38.5508 96.7339 39.5438 95.9821 39.8984 94.6203L48.3668 62.4632C48.537 61.91 49.3597 61.9667 49.3739 62.5341H49.4023Z" fill="white"/>
<path d="M115.405 59.1865C115.291 49.0585 113.319 38.3063 92.7939 38.5049C72.2683 38.7035 70.552 49.4982 70.6938 59.5978L71.1052 93.6699C71.1336 95.4289 72.1549 96.3793 73.8712 96.3651L84.0985 96.2658C85.6021 96.2658 86.822 95.1735 86.8079 93.826L86.7228 86.8328C86.7228 85.2299 87.7015 84.4072 89.4321 84.393L97.2763 84.3079C98.7799 84.3079 100.028 85.3718 100.042 86.691L100.127 93.6841C100.127 95.287 101.163 96.0814 102.894 96.0672L113.107 95.9679C114.936 95.9679 115.83 94.975 115.802 93.216L115.39 59.1439L115.405 59.1865ZM99.6452 69.0592C99.3189 69.967 98.4678 70.4493 97.0919 70.5202L89.2477 70.6053C87.7441 70.6053 86.4958 69.5556 86.4816 68.2223L86.3823 59.456C86.3823 59.2148 86.3823 58.9879 86.3823 58.7609C86.4249 55.3566 87.3327 53.6544 92.9783 53.6118C99.0069 53.5409 99.6594 55.4842 99.7161 59.3283L99.8154 68.0095C99.8154 68.4067 99.7587 68.7613 99.6594 69.0592H99.6452Z" fill="white"/>
<path d="M99.7019 59.3283C99.6452 55.47 98.9927 53.5409 92.9641 53.6118C98.9927 53.5551 99.6452 55.4842 99.7019 59.3283Z" fill="white"/>
<path d="M86.4816 68.2222C86.4816 69.5556 87.7441 70.6195 89.2477 70.6053C87.7441 70.6053 86.4958 69.5414 86.4816 68.2222Z" fill="white"/>
<path d="M92.9641 53.6118C87.3185 53.6685 86.4248 55.3707 86.3681 58.7609C86.4107 55.3707 87.3185 53.6685 92.9641 53.6118Z" fill="white"/>
<path d="M99.8154 68.0095C99.8154 68.4066 99.7587 68.7613 99.6594 69.0591C99.7728 68.7613 99.8296 68.4066 99.8154 68.0095Z" fill="white"/>
<path d="M164.64 58.0942C165.264 58.0942 165.761 57.6119 165.733 57.0729C165.009 46.3775 160.243 37.8524 143.179 38.0084C121.547 38.207 120.44 52.4486 120.497 57.7538L120.738 77.8538C120.809 83.1589 122.242 97.358 143.888 97.1594C165.52 96.9608 166.626 82.7192 166.569 77.4141L166.442 66.5626C166.442 65.0306 165.562 64.2505 163.917 64.1937H162.399L147.987 64.3498C146.257 64.3498 146.526 65.1867 146.555 66.7896L146.64 73.2295C146.64 74.5629 146.611 75.6268 148.129 75.6126L150.867 75.5558C150.924 79.4992 150.498 83.2724 143.746 83.3433C136.994 83.4143 136.498 79.6411 136.412 73.4423L136.271 61.8674C136.185 55.6828 136.611 51.8954 143.363 51.8387C148.2 51.7961 149.888 54.0232 150.441 57.4275C150.526 57.9098 150.994 58.2361 151.534 58.2361L164.655 58.1084L164.64 58.0942Z" fill="white"/>
<path d="M18.0537 123.955C17.6707 122.111 19.8268 120.252 23.3872 120.21C27.671 120.167 30.7208 122.238 31.4017 125.515C31.6995 127.118 32.6216 127.827 34.4372 127.487L44.8206 125.387C46.466 125.047 47.2745 124.153 47.1611 122.721C46.5369 116.933 42.0403 106.209 23.2312 106.38C2.79073 106.578 1.3155 120.806 1.44317 123.217C1.67013 141.7 29.1179 139.913 30.9336 146.721C31.5009 148.878 28.2526 151.246 23.7702 151.289C19.4863 151.332 16.082 149.104 15.6706 145.246C15.472 143.558 14.4507 142.849 12.635 143.175L2.351 145.275C0.705554 145.601 -0.102984 146.509 0.0104949 147.941C0.535336 154.197 4.7908 165.261 23.9546 165.077C45.5865 164.864 48.5228 150.622 48.4944 148.211C48.2675 129.728 19.4296 130.153 18.082 123.912V123.941L18.0537 123.955Z" fill="white"/>
<path d="M131.519 109.075C131.519 107.741 130.256 106.677 128.753 106.692L118.539 106.791C116.809 106.791 115.816 107.628 115.83 109.231L116.213 140.735C116.298 146.934 115.887 150.707 109.121 150.764C102.369 150.835 101.872 147.062 101.787 140.863L101.404 109.358C101.404 108.025 100.142 106.961 98.638 106.975L88.4249 107.075C86.6944 107.075 85.7014 107.912 85.7156 109.514L86.1553 145.275C86.2263 150.58 87.6589 164.779 109.305 164.58C130.937 164.382 132.043 150.14 131.987 144.835L131.547 109.075H131.519Z" fill="white"/>
<path d="M159.676 106.394L139.32 106.592C137.49 106.692 136.597 107.5 136.611 109.103L137.235 160.452C137.235 161.786 138.498 162.85 140.001 162.835L160.357 162.637C177.506 162.481 183.095 156.225 182.939 143.048L182.726 125.444C182.57 112.266 176.839 106.209 159.661 106.365V106.394H159.676ZM160.47 148.821L155.534 148.878C154.03 148.878 152.782 147.814 152.768 146.494L152.47 122.706C152.47 121.104 153.448 120.281 155.179 120.267L160.115 120.21C164.655 120.167 166.839 120.664 166.754 126.168L166.967 143.062C167.094 148.112 164.91 148.792 160.47 148.835V148.821Z" fill="white"/>
<path d="M256.998 143.601L256.757 123.501C256.686 118.196 255.253 103.997 233.607 104.195C211.975 104.394 210.869 118.635 210.926 123.941L211.167 144.041C211.238 149.346 212.67 163.545 234.317 163.346C255.949 163.148 257.055 148.906 256.998 143.601ZM234.161 149.53C227.409 149.601 226.912 145.828 226.827 139.629L226.685 128.054C226.6 121.87 227.026 118.082 233.778 118.025C240.53 117.969 241.026 121.728 241.111 127.926L241.253 139.501C241.338 145.7 240.913 149.473 234.161 149.53Z" fill="white"/>
<path d="M188.414 64.1795H175.165C174.215 64.1795 173.477 64.9171 173.605 65.7399L194.542 160.963C194.67 162.055 195.734 162.906 197.01 162.906H208.457C209.933 162.906 211.067 161.786 210.911 160.495L189.989 65.3852C189.889 64.6902 189.223 64.1795 188.428 64.1795H188.414Z" fill="white"/>
<path d="M173.194 57.7255H186.031C187.138 57.7255 187.974 56.8318 187.776 55.8814L184.825 41.7249C184.726 41.0299 184.059 40.5192 183.265 40.5192H170.016C169.066 40.5192 168.328 41.2568 168.456 42.0795L171.449 56.4346C171.605 57.1723 172.343 57.7255 173.194 57.7113V57.7255Z" fill="white"/>
<path d="M80.6516 107.287H50.8491C49.7853 107.287 48.9342 108.053 48.9484 108.975V118.806C48.9484 119.728 49.8136 120.494 50.8633 120.494H57.7288L57.9132 135.998L58.0125 144.168L58.2253 161.289C58.2253 162.623 59.4877 163.687 60.9913 163.672L71.2045 163.573C73.0343 163.573 73.928 162.665 73.9138 161.133L73.701 144.012L73.6017 135.842L73.4173 120.494H80.6516C81.7155 120.494 82.5666 119.742 82.5524 118.806V108.975C82.5524 108.053 81.6871 107.287 80.6374 107.287H80.6516Z" fill="white"/>
<path d="M245.267 74.1373C245.267 73.5558 244.728 73.0735 244.062 73.0735H230.132C229.465 73.0735 228.926 73.5558 228.926 74.1373V78.1233C228.245 80.9603 226.671 82.5632 222.33 82.5915C215.578 82.6625 215.082 78.8893 214.997 72.6905L214.897 64.2789L214.855 61.1014C214.855 59.7113 214.855 58.463 214.954 57.3283C215.295 53.4132 216.713 51.1011 221.962 51.0727C225.905 51.0302 227.763 52.3635 228.6 54.704V58.1226C228.6 58.6191 229.068 59.0163 229.621 59.0163H244.132C244.629 59.0163 245.026 58.6616 245.026 58.2219V54.9877V54.2218C245.026 54.0374 244.969 53.8813 244.927 53.7111C244.076 45.1576 239.494 37.0722 221.791 37.2424C200.159 37.441 199.053 51.6827 199.11 56.9878V57.3283L199.209 64.2647L199.365 77.0594C199.436 82.3646 200.869 96.5637 222.515 96.3651C241.21 96.1949 244.7 86.847 245.253 77.7261C245.253 77.6694 245.253 77.6268 245.225 77.5843C245.225 77.5275 245.267 77.485 245.267 77.4282V74.0948V74.1232V74.1373Z" fill="white"/>
<path d="M173.038 21.9653C182.173 19.0574 191.379 9.83722 194.301 0.702152C194.599 -0.234051 195.904 -0.234051 196.188 0.702152C199.095 9.83722 208.316 19.0432 217.451 21.9653C218.387 22.2632 218.387 23.5682 217.451 23.8519C208.316 26.7598 199.11 35.98 196.188 45.115C195.89 46.0512 194.585 46.0512 194.301 45.115C191.393 35.98 182.173 26.774 173.038 23.8519C172.102 23.554 172.102 22.249 173.038 21.9653Z" fill="#73FAFC"/>
</svg>
