<svg xmlns="http://www.w3.org/2000/svg" width="144" height="40" fill="none" xmlns:v="https://vecta.io/nano"><path d="M24.92.882v10.151.182c0 3.822-.377 8.751-3.321 13.077-.614.882-1.298 1.708-2.121 2.506l-.014.014c-1.605 1.54-3.711 2.996-6.725 4.676-3.014-1.68-5.134-3.136-6.725-4.676l-.014-.014C5.178 26 4.48 25.188 3.88 24.292.936 19.98.56 15.037.56 11.215v-1.26V.882l.488-.056C1.118.812 7.647 0 12.74 0s11.622.812 11.692.826l.488.056z" fill="#afaed5"/><path d="M12.74 1.134c-3.795 0-8.413.462-10.464.686L1.69 9.955h11.05 11.05l-.571-8.134c-2.065-.224-6.683-.686-10.479-.686zm0 9.507l-11.064.616c0 3.654.363 8.359 3.125 12.405a15.72 15.72 0 0 0 2.009 2.366c2.428 2.24 5.162 3.473 5.93 3.795.767-.322 3.502-1.555 5.93-3.795.781-.756 1.437-1.526 2.009-2.366 2.749-4.046 3.111-8.751 3.111-12.405l-11.05-.616z" fill="#fff"/><path d="M11.414 2.576c-.572 0-1.186.099-1.828.183-.712.112-1.45.209-2.19.209h-.349V4.41h-.516v.84h.516v1.148h-.516v.84h.516v1.568h.349c.795 0 1.576-.125 2.315-.237l1.744-.197c.419 0 .726.057.963.183h.67c.237-.126.544-.183.963-.183.516 0 1.115.099 1.743.197.753.112 1.535.237 2.316.237h.349V7.238h.516v-.84h-.516V5.25h.516v-.826h-.516V2.968h-.349c-.739 0-1.479-.111-2.191-.209l-1.827-.183c-.53 0-.977.084-1.34.252-.363-.168-.809-.252-1.34-.252h.001zm1.326 8.639c-.014 0-.028.014-.028.028l-1.214 3.737H7.592c-.014 0-.028.001-.042.015 0 .028 0 .042.028.042l3.167 2.31-1.214 3.765.028.014 3.196-2.324 3.194 2.324h.014c.014-.014.014-.028 0-.028l-1.214-3.751 3.168-2.31c.014 0 .028-.014.014-.042 0-.014-.014-.015-.028-.015h-3.92l-1.214-3.737c0-.014-.014-.028-.028-.028zm-7.213.756l-.223.195c-.544.406-.921.995-1.047 1.667-.07.336-.07.671 0 .993-.265-.211-.572-.364-.893-.476l-.293-.084-.07.293a2.7 2.7 0 0 0 .293 1.946c.335.588.893 1.023 1.535 1.219l.251.07c.028.21.084.419.154.629a2.51 2.51 0 0 0-1.214-.406l-.293-.028v.308c-.014.686.237 1.33.684 1.835.46.504 1.075.812 1.758.868l.265.028a2.44 2.44 0 0 0 .279.575c-.293-.112-.614-.169-.935-.169-.112 0-.223 0-.335.014l-.293.042.056.294c.126.672.502 1.261 1.061 1.667.46.336.991.504 1.563.504l.335-.014.264-.028c.112.182.237.35.391.504a2.61 2.61 0 0 0-1.269.112l-.279.099.112.279c.265.63.752 1.134 1.366 1.401a2.66 2.66 0 0 0 1.075.238c.293 0 .6-.057.879-.155l.209-.07a16.94 16.94 0 0 0 1.284.967l-.823.546.53.322.796-.533.795.533.53-.322-.823-.546 1.284-.967.208.07c.279.098.586.155.879.155.377 0 .74-.084 1.075-.238.614-.28 1.102-.771 1.368-1.401l.112-.279-.279-.099c-.405-.14-.851-.182-1.27-.112a2.71 2.71 0 0 0 .391-.504l.265.028c.112.014.223.014.335.014.572 0 1.103-.168 1.563-.504a2.78 2.78 0 0 0 1.061-1.667l.056-.294-.293-.042c-.112-.014-.223-.014-.335-.014a2.69 2.69 0 0 0-.935.169 3.12 3.12 0 0 0 .279-.575l.265-.028c.684-.056 1.298-.364 1.758-.868s.697-1.162.683-1.835v-.308l-.307.028a2.66 2.66 0 0 0-1.213.406c.084-.196.126-.419.153-.629l.307-.07a2.62 2.62 0 0 0 1.534-1.219 2.7 2.7 0 0 0 .293-1.946l-.07-.293-.293.084a2.61 2.61 0 0 0-.892.476c.056-.322.056-.657 0-.993-.126-.672-.503-1.261-1.047-1.667l-.237-.181-.154.251a2.68 2.68 0 0 0-.363 1.932c.126.672.503 1.247 1.047 1.653a3.23 3.23 0 0 0-.209.714 2.66 2.66 0 0 0-.809-1.148l-.239-.197-.181.252c-.391.56-.572 1.232-.474 1.904.084.672.433 1.287.949 1.721l.014.014c-.153.21-.279.434-.363.686-.07-.462-.251-.91-.558-1.302l-.181-.238-.223.209c-.502.462-.809 1.093-.865 1.765s.154 1.344.572 1.876l.014.014a2.88 2.88 0 0 0-.502.589c.028-.476-.056-.953-.279-1.387l-.139-.266-.265.155a2.7 2.7 0 0 0-1.214 1.554c-.195.658-.126 1.344.181 1.96v.014c-.223.126-.433.294-.6.476a2.7 2.7 0 0 0 .014-1.415l-.07-.293-.279.098c-.642.224-1.171.672-1.506 1.274-.307.574-.391 1.246-.237 1.89l-.265.183-.265-.183c.153-.644.07-1.316-.237-1.89-.321-.602-.851-1.05-1.507-1.274l-.279-.098-.07.293c-.126.462-.112.952.014 1.415-.181-.182-.377-.35-.614-.476l.014-.014c.307-.616.363-1.302.181-1.96a2.7 2.7 0 0 0-1.214-1.554l-.265-.155-.14.266c-.223.434-.306.911-.278 1.387-.14-.224-.307-.421-.502-.589l.014-.014a2.7 2.7 0 0 0 .572-1.89 2.67 2.67 0 0 0-.865-1.765l-.223-.209-.181.238c-.307.378-.488.826-.558 1.302-.085-.238-.21-.476-.364-.686l.014-.014a2.64 2.64 0 0 0 .949-1.722c.084-.672-.084-1.358-.474-1.904l-.181-.252-.237.197a2.55 2.55 0 0 0-.809 1.148 2.11 2.11 0 0 0-.209-.714c.544-.406.921-.995 1.047-1.653a2.68 2.68 0 0 0-.363-1.932l-.153-.251h.002z" fill="#afaed5"/><path d="M11.4 3.262c-.516 0-1.103.083-1.73.181l-1.701.197-.154 4.439c.586-.028 1.185-.113 1.771-.211l1.856-.197c.307 0 .572.029.809.085l.126-3.711V3.43c-.251-.112-.572-.168-.977-.168zm2.679 0c-.405 0-.712.055-.977.167v.617l.126 3.711c.237-.056.502-.085.809-.085.572 0 1.199.099 1.855.197l1.772.211-.153-4.439-1.703-.197-1.729-.181zm-8.693 9.563a2.14 2.14 0 0 0-.586 1.106c-.07.42-.028.854.14 1.232a2.14 2.14 0 0 0 .586-1.106 2.19 2.19 0 0 0-.14-1.232zm14.664 0a2.12 2.12 0 0 0-.14 1.246c.084.42.293.798.586 1.106a2.12 2.12 0 0 0 .14-1.246c-.084-.42-.293-.812-.586-1.106zm-7.311 1.036l-.726 1.819-1.968.141 1.521 1.26-.488 1.904 1.661-1.05 1.661 1.05-.488-1.904 1.506-1.26-1.952-.127-.726-1.833zM3.503 15.01a2.18 2.18 0 0 0 .279 1.218c.209.364.53.658.907.84.042-.42-.056-.84-.279-1.218-.209-.364-.53-.658-.907-.84zm18.444 0c-.391.182-.697.476-.906.84-.209.378-.307.798-.279 1.218.377-.182.697-.476.906-.84a2.21 2.21 0 0 0 .279-1.218zM6.168 16.059a2.17 2.17 0 0 0-.516 1.134 2.09 2.09 0 0 0 .209 1.232c.279-.322.461-.713.516-1.133.056-.434-.014-.855-.209-1.233zm13.115 0c-.195.378-.265.813-.209 1.233s.237.811.516 1.133a2.09 2.09 0 0 0 .209-1.232 2.17 2.17 0 0 0-.516-1.134zM4.312 18.621c.07.42.251.812.53 1.134a1.94 1.94 0 0 0 1.061.63 2.25 2.25 0 0 0-.53-1.134 2.12 2.12 0 0 0-1.061-.63zm16.813 0a2.08 2.08 0 0 0-1.061.63c-.293.322-.475.714-.53 1.134.405-.098.781-.308 1.061-.63a2 2 0 0 0 .53-1.134zm-2.819.476c-.265.336-.433.728-.46 1.162s.07.854.265 1.218c.265-.336.433-.742.46-1.162.042-.434-.056-.854-.265-1.218zm-11.175.014c-.209.364-.293.784-.279 1.218.042.434.195.826.461 1.162.209-.364.307-.784.279-1.218-.042-.434-.195-.826-.46-1.162zm1.576 2.772c-.126.406-.14.841-.014 1.247a2.18 2.18 0 0 0 .684 1.035c.126-.406.14-.84.014-1.246s-.363-.77-.684-1.036zm8.023 0c-.321.266-.558.63-.684 1.036s-.112.84.014 1.246a2.18 2.18 0 0 0 .684-1.035c.126-.406.112-.841-.014-1.247zm-10.882.127c.153.392.405.741.754.993s.754.378 1.158.406c-.14-.406-.391-.741-.74-.993s-.754-.392-1.172-.406zm13.729 0c-.419.014-.823.154-1.172.406-.335.252-.6.587-.74.993.419-.014.823-.154 1.172-.406a2.08 2.08 0 0 0 .74-.993zm-4.966 2.254c-.363.196-.67.504-.879.882s-.293.798-.237 1.218a2.06 2.06 0 0 0 .879-.882c.195-.378.279-.798.237-1.218zm-3.782.014c-.042.42.042.84.237 1.204a2.06 2.06 0 0 0 .879.882c.042-.42-.042-.84-.237-1.218-.195-.364-.503-.672-.879-.868zm-2.448.668a2.3 2.3 0 0 0-.313.032c.223.364.543.658.934.826a2.16 2.16 0 0 0 1.228.153c-.223-.364-.544-.658-.935-.826a2 2 0 0 0-.913-.185zm8.69.003a2.15 2.15 0 0 0-.912.183c-.391.182-.712.462-.935.826l.377.028a1.98 1.98 0 0 0 .851-.181c.391-.182.712-.462.935-.826a2.17 2.17 0 0 0-.316-.029z" fill="#fff"/><path d="M135.014 1.26c-5.009 1.05-8.623 3.36-8.623 7.308 0 3.22 2.136 4.886 4.731 6.006l4.366 1.918c2.163.938 3.753 2.353 3.753 4.817 0 2.646-1.8 4.592-4.897 4.592-2.023 0-4.004-.938-5.078-2.282l-1.256-3.08h-2.525l.795 4.886c1.911 1.512 4.143 2.464 7.464 2.464 6.781-1.414 9.083-4.704 9.083-8.106 0-3.696-2.483-5.503-5.329-6.735l-4.145-1.805c-1.981-.868-3.39-2.101-3.39-4.089 0-2.422 1.688-3.976 4.548-3.976 2.163 0 3.321.797 4.255 1.777l1.047 3.291h1.8V3.36c-1.799-1.344-4.324-2.099-6.599-2.099zm-21.961.294l-2.162.615-8.944 23.452-1.73.238-1.729-.266-8.009-11.831 7.395-10.206 2.817-.392-.181-1.261-4.213.113-4.213-.113-.181 1.261 3.139.476-5.72 8.443-5.092-8.47 3.069-.476-.181-1.261-5.12.141-5.162-.141-.181 1.261 2.819.392 7.463 11.326-7.784 10.753-2.819.392.181 1.303 4.032-.113 4.214.113L84.94 26l-2.958-.434 6.153-9.016 5.609 8.988-3.069.476.181 1.303 5.162-.113 4.213.085 2.958-.085 4.325.113.181-1.261-3.138-.476 2.343-6.763h8.902l2.456 6.763-3.07.476.181 1.261 4.758-.113 4.982.113.181-1.261-2.819-.392-9.418-24.109zm-81.52.321v6.399h1.409l1.659-4.592 5.401-.07v21.925l-4.326.476.181 1.26 6.055-.112 5.846.112.181-1.26-4.143-.476V3.613l5.399.07 1.661 4.592h1.409V1.876l-10.381.113-10.352-.113zm22.895 0l-.181 1.261 3.252.476v21.925l-3.251.476.181 1.26 4.982-.112 14.314.112 1.256-6.692h-1.368l-2.413 4.887-9.921.112V14.715l5.052.153 1.436 3.794h1.27l-.363-4.886.363-4.521h-1.27l-1.436 3.793-5.052.155V3.571l9.558.112 2.023 4.704h1.227l-.363-6.51-14.314.113-4.982-.113zm-43.082 2.05c-.396-.004-.817.044-1.246.107v.573c.6-.084 1.144-.14 1.619-.098l.014-.559c-.126-.014-.255-.022-.387-.023zm3.066.014c-.23-.012-.454-.012-.67.009l.014.559c.405-.028.864 0 1.366.07v-.573a11.77 11.77 0 0 0-.71-.065zm1.129.107v.575l.279.042 1.102.154-.014-.573c-.335-.042-.67-.085-1.005-.141a3.25 3.25 0 0 1-.363-.056zm-5.86.042c-.042.014-.07.014-.112.014-.335.056-.67.099-1.005.141l-.014.573a26.16 26.16 0 0 0 1.102-.154h.028v-.575zm1.516 1.127c-.505.015-1.045.092-1.6.176v.573c.028 0 .042 0 .07-.014.753-.112 1.437-.209 2.009-.167l.014-.561a5.19 5.19 0 0 0-.494-.008zm2.601.008l.014.561c.363-.028.766 0 1.199.056v-.561a9.2 9.2 0 0 0-1.213-.056zm1.631.098v.575c.126.014.265.042.391.056l1.144.154-.014-.573-1.047-.14c-.153-.028-.321-.043-.474-.071zm-6.264.127l-.642.084-.014.573.67-.084v-.573h-.014zm102.034.77l3.934 10.851h-7.674l3.74-10.851zm-97.357.279l.014.561c.46-.028 1.004.028 1.576.112v-.559c-.558-.084-1.101-.141-1.59-.113zm-2.205.014c-.474-.028-.991.029-1.535.099v.573c.558-.084 1.075-.14 1.521-.112l.014-.561zm4.227.141v.587h-.014c.377.056.768.113 1.172.155l-.014-.575c-.377-.042-.74-.098-1.088-.154-.014 0-.028 0-.056-.014zm-6.181.014c-.042 0-.07.014-.098.014l-1.088.153-.014.575a31.15 31.15 0 0 0 1.2-.155h.028v-.587h-.028zm30.952 26.219l-.825.095-1.885.014-2.207-.014v1.319h.293l.349-.939 1.16-.027v4.532l-.922.095.042.259 1.286-.028 1.242.028.043-.259-.88-.095v-4.532l1.564.027.279-.041v4.586l-.461.069.042.258.811-.027.726.027.042-.258-.419-.069v-2.219l.223-.136c.279-.177.573-.34.811-.34.307 0 .488.163.488.558v2.136l-.377.069.042.258.726-.027.866.014.042-.259-.572-.069v-1.987c0-.953-.168-1.307-1.146-1.307l-1.118.708v-2.422h-.265zm83.438.027l-.462.123-1.899 4.843-.601.082.042.259.824-.028.923.028.042-.259-.672-.095.504-1.402v.014h1.885l.517 1.401-.656.096.042.258 1.019-.027 1.062.027.042-.258-.601-.083-2.011-4.98zm-33.904.028l-.642.708a1.4 1.4 0 0 0-.419 1.047v.069h-.448l-.237.259v.122h.671v2.763l-.545.069.042.258.88-.027 1.188.027.042-.285-.88-.055v-2.762h.964v-.354h-.964v-.19c0-.49.056-.707.167-.844l.153-.204h.992v-.599h-.964zm-41.127.041l-.042.259.699.095v3.035c0 1.197.545 1.987 2.054 1.987 1.537-.354 1.941-.993 1.941-1.973v-3.048l.657-.095-.042-.259-.894.027-.978-.027-.042.259.671.081v3.13c0 .966-.447 1.483-1.243 1.483-.88 0-1.285-.53-1.285-1.455v-3.144l.656-.095-.042-.259-1.048.027-1.062-.027zm44.156.014v1.319h.307l.349-.953 1.16-.013v4.53l-.921.097.042.258 1.285-.027 1.243.027.028-.258-.88-.097v-4.53l1.16.013.349.953h.293v-1.319l-2.206.027-2.208-.027zm-33.233.013l-.558.042-.07.353.042.422.209.041.544-.041.084-.354-.042-.421-.209-.042zm15.911 0l-.559.042-.07.353.042.422.211.041.544-.041.084-.354-.042-.421-.209-.042zm62.109 0l-.56.042-.07.353.042.422.21.041.545-.041.084-.354-.042-.421-.209-.042zm-14.25.722l.056.408.727 1.973h-1.634l.851-2.381zm-45.762.041l-.504.49v.49h-.502l-.265.259v.123h.74v2.231c0 .68.112.979.978.979l.964-.516-.126-.259c-.21.095-.448.204-.671.204-.321 0-.405-.231-.405-.449v-2.286h1.16l1.285 3.156.307-.095-.769 1.129h-.656v.749V40h.922l.865-1.892 1.243-3.062.49-.081-.042-.259-.643.028-.67-.028-.042.259.349.081-.95 2.709-.056-.518-.853-2.191.504-.081-.042-.259h-2.417v-.939h-.195zm40.202 0l-.503.49v.49h-.503l-.265.259v.123h.74v2.231c0 .68.112.979.978.979l.894-.49-.125-.259c-.224.095-.392.178-.616.178-.321 0-.404-.231-.404-.449v-2.191h1.159v-.34h-1.159v-1.021h-.196zm16.916 0l-.502.49v.49h-.502l-.267.259v.123h.741v2.231c0 .68.112.979.978.979l.893-.49-.125-.259c-.21.095-.377.178-.6.178-.322 0-.405-.231-.405-.449v-2.191h1.144v-.34h-1.158v-1.021h-.197zm-62.006.789c-.894.191-1.397.49-1.397 1.007 0 .422.307.707.642.87l.601.313c.405.204.558.341.558.627 0 .313-.209.571-.614.571a1.18 1.18 0 0 1-.629-.19l-.265-.627h-.49l.141.845c.209.109.697.34 1.172.34.88-.191 1.44-.436 1.44-1.116 0-.422-.21-.707-.727-.965l-.586-.287c-.335-.163-.532-.312-.532-.557 0-.272.294-.436.587-.436.279 0 .502.123.586.164l.195.53h.406v-.748c-.224-.163-.671-.34-1.09-.34zm37.045 0c-.894.191-1.396.49-1.396 1.007 0 .422.308.707.643.87l.6.313c.405.204.559.341.559.627 0 .313-.21.571-.615.571a1.18 1.18 0 0 1-.628-.19l-.266-.627h-.489l.14.845c.209.109.712.34 1.173.34.88-.191 1.439-.436 1.439-1.116 0-.422-.209-.707-.726-.965l-.587-.287c-.335-.163-.53-.312-.53-.557 0-.272.292-.436.586-.436.279 0 .503.123.587.164l.195.53h.405v-.748c-.223-.163-.671-.34-1.09-.34zm22.267 0c-.894.191-1.397.49-1.397 1.007 0 .422.308.707.644.87l.6.313c.391.204.559.341.559.627 0 .313-.21.571-.615.571-.238 0-.46-.081-.628-.19l-.266-.627h-.489l.14.845c.209.109.698.34 1.173.34.88-.191 1.439-.436 1.439-1.116 0-.422-.209-.707-.726-.965l-.587-.287c-.335-.163-.53-.312-.53-.557 0-.272.292-.436.586-.436.279 0 .517.123.587.164l.195.53h.405v-.748c-.225-.163-.672-.34-1.09-.34h0zm-86.594.028c-1.048.218-1.733.816-1.733 1.918 0 1.184.839 1.823 1.775 1.823.489-.122.978-.34 1.341-.585l-.126-.285c-.293.177-.657.313-.964.313-.796 0-1.271-.599-1.271-1.456v-.014h2.333v-.313c0-.776-.335-1.401-1.355-1.401zm20.771 0c-1.048.218-1.732.816-1.732 1.918 0 1.184.838 1.823 1.773 1.823.489-.122.979-.34 1.342-.585l-.127-.285c-.293.177-.656.313-.963.313-.796 0-1.271-.599-1.271-1.456v-.014h2.333v-.313c0-.776-.337-1.401-1.356-1.401zm19.794 0c-1.187.204-1.885.829-1.885 1.959 0 1.007.698 1.782 1.718 1.782 1.187-.191 1.886-.829 1.886-1.945 0-1.021-.685-1.796-1.719-1.796zm12.656 0c-1.048.218-1.732.816-1.732 1.918 0 1.184.824 1.823 1.76 1.823a4.42 4.42 0 0 0 1.342-.585l-.127-.285c-.293.177-.655.313-.963.313-.796 0-1.271-.599-1.271-1.456v-.014h2.347v-.313c0-.776-.336-1.401-1.356-1.401zm7.459 0l-1.396.611v.572h.657l.125-.599c.168-.068.419-.136.628-.136.405 0 .448.272.448.721v.368l-1.733.558c-.167.231-.265.422-.265.694 0 .599.475.951 1.132.951l.922-.652.237.571.992-.19-.028-.259h-.377c-.069-.123-.126-.232-.126-.558v-1.469c0-.939-.252-1.184-1.216-1.184zm8.703 0l-1.369.611v.572h.658l.125-.599c.168-.068.419-.136.628-.136.405 0 .448.272.448.721v.368l-1.733.558c-.168.231-.265.422-.265.694 0 .599.475.951 1.131.951l.909-.652.237.571.992-.19-.028-.259h-.391c-.069-.123-.126-.232-.126-.558v-1.469c0-.939-.252-1.184-1.216-1.184zm-58.321.013l-1.132.722-.042-.627-.336.028-.921.231.042.259.53-.041v2.735l-.53.069.042.258.88-.027.74.041.042-.259-.419-.067v-2.219l.223-.15c.265-.177.531-.34.797-.34.321 0 .502.164.502.558v2.136l-.391.069.042.258.74-.027.88.027.042-.258-.586-.069v-2.082c0-.898-.168-1.225-1.146-1.225zm84.598 0l-1.131.722-.042-.627-.336.028-.921.231.041.259.531-.041v2.735l-.531.069.042.258.879-.027.727.041.042-.259-.418-.067v-2.219l.237-.15c.265-.177.53-.34.795-.34.322 0 .504.164.504.558v2.136l-.391.069.042.258.74-.027.88.027.042-.258-.587-.069v-2.082c0-.898-.167-1.225-1.145-1.225zm-70.92.028l-.88 1.048-.028-.993-.307.027-.922.232.042.258.53-.041v2.735l-.53.068.042.259.866-.028 1.118.028.042-.287-.811-.067v-1.782l.154-.178c.209-.245.545-.489.727-.53h.572v-.748h-.614zm57.144.055l-.376.027-.923.19.042.287.546-.042v1.96c0 .871.167 1.224 1.187 1.224l1.118-.68.209.613.992-.19-.028-.259h-.392c-.056-.122-.097-.232-.097-.558V34.68l-.391.027-.853.19.042.287.462-.042v2.11l-.153.095c-.294.191-.602.381-.839.381-.377 0-.546-.162-.546-.557v-2.49zm-67.539.013l-.391.028-.922.231.042.259.532-.041v2.735l-.532.069.042.258.88-.027.88.027.042-.258-.573-.069v-3.212zm.643 0l-.042.259.474.083 1.341 3.306.559-.231 1.257-3.075.488-.083-.042-.259-.642.028-.671-.028-.042.259.349.083-.935 2.707-.029-.516-.837-2.191.502-.083-.042-.259-.809.028-.88-.028zm15.24 0l-.377.028-.922.231.042.259.53-.041v2.735l-.53.069.042.258.88-.027.867.027.042-.258-.573-.069v-3.212zm24.74 0l-.042.273.474.081 1.118 1.484-1.132 1.36-.544.068.042.259.795-.028.602.028.041-.259-.376-.054.809-1.143.056.176.685.967-.321.069.042.258.725-.027.881.027.042-.258-.475-.069-1.201-1.661 1.019-1.198.559-.081-.042-.273-.797.028-.6-.028-.041.273.376.081-.727 1.021-.055-.19-.573-.831.307-.081-.041-.273-.726.028-.88-.028zm37.367 0l-.377.028-.922.231.041.259.531-.041v2.735l-.531.069.042.258.881-.027.865.027.042-.258-.572-.069v-3.212zm-92.489.259c.601 0 .712.409.712.981l-1.536.067c.056-.626.35-1.048.825-1.048zm20.785 0c.601 0 .713.409.713.981l-1.536.067c.056-.626.348-1.048.823-1.048zm19.766 0c.657 0 1.132.64 1.132 1.592 0 .803-.322 1.416-.936 1.416-.684 0-1.146-.721-1.132-1.578 0-.816.308-1.43.936-1.43zm12.656 0c.601 0 .713.409.713.981l-1.536.067c.056-.626.362-1.048.823-1.048zm8.103 1.47v.979l-.321.218c-.098.068-.294.19-.503.19-.224 0-.447-.137-.447-.518 0-.163.042-.312.154-.421l1.117-.449zm8.703 0v.979l-.321.218c-.098.068-.294.19-.503.19-.224 0-.447-.137-.447-.518 0-.163.042-.312.153-.421l1.118-.449z" fill="#afaed5"/></svg>