<svg xmlns="http://www.w3.org/2000/svg" width="117" height="40" fill="#afaed5" xmlns:v="https://vecta.io/nano"><path d="M7.17 28.568c.49 1.292 1.167 2.397 2.033 3.315a8.75 8.75 0 0 0 3.078 2.107c1.186.487 2.476.73 3.869.73 1.355 0 2.626-.253 3.812-.758a9.38 9.38 0 0 0 3.106-2.135c.885-.918 1.572-2.013 2.061-3.286s.734-2.697.734-4.27V0h5.93v39.326H25.92v-3.652c-1.318 1.386-2.871 2.453-4.659 3.202S17.543 40 15.472 40c-2.109 0-4.076-.365-5.902-1.096s-3.407-1.77-4.744-3.118-2.391-2.968-3.163-4.859-1.158-3.998-1.158-6.32V0h5.93v24.27c0 1.573.245 3.006.734 4.298zM42.016 0v14.326a15.11 15.11 0 0 1 4.575-3.118c1.732-.768 3.614-1.152 5.648-1.152 2.109 0 4.085.393 5.93 1.18s3.445 1.854 4.801 3.202 2.429 2.94 3.219 4.775a14.61 14.61 0 0 1 1.186 5.843 14.41 14.41 0 0 1-1.186 5.814 15.15 15.15 0 0 1-3.219 4.747c-1.356 1.348-2.956 2.416-4.8 3.202S54.347 40 52.238 40c-2.033 0-3.925-.384-5.676-1.152s-3.285-1.807-4.603-3.118v3.595h-5.648V0h5.704zm.649 28.933a9.77 9.77 0 0 0 2.118 3.146 10.22 10.22 0 0 0 3.163 2.135c1.205.524 2.504.787 3.897.787 1.356 0 2.636-.262 3.84-.787a9.88 9.88 0 0 0 3.135-2.135c.885-.899 1.591-1.947 2.118-3.146s.791-2.491.791-3.876a9.72 9.72 0 0 0-.791-3.904 10.32 10.32 0 0 0-2.118-3.174 9.51 9.51 0 0 0-3.135-2.107c-1.205-.506-2.485-.759-3.84-.759s-2.636.253-3.84.759a9.85 9.85 0 0 0-3.163 2.107c-.904.899-1.619 1.957-2.146 3.174a9.72 9.72 0 0 0-.791 3.904c0 1.385.254 2.678.762 3.876zm27.927-9.663c.753-1.798 1.788-3.38 3.106-4.747s2.88-2.444 4.688-3.23 3.765-1.18 5.874-1.18c2.071 0 3.991.374 5.761 1.124s3.294 1.788 4.575 3.118 2.278 2.903 2.993 4.719 1.073 3.792 1.073 5.927v1.854H75.224a9.57 9.57 0 0 0 1.13 3.23c.565.992 1.271 1.854 2.118 2.584a9.7 9.7 0 0 0 2.88 1.714 9.45 9.45 0 0 0 3.417.618c3.426 0 6.194-1.405 8.302-4.214l4.123 3.034c-1.431 1.91-3.2 3.408-5.309 4.494s-4.481 1.629-7.116 1.629c-2.146 0-4.151-.375-6.015-1.124s-3.483-1.798-4.857-3.146-2.457-2.931-3.247-4.747-1.186-3.792-1.186-5.927c0-2.022.376-3.933 1.129-5.73zm7.935-2.219c-1.6 1.33-2.664 3.099-3.191 5.309H92.9c-.489-2.21-1.534-3.979-3.135-5.309s-3.473-1.994-5.619-1.994-4.019.665-5.62 1.994zm30.809.646c-1.205 1.311-1.808 3.09-1.808 5.337v16.292h-5.704V10.674h5.648v3.539c.715-1.161 1.647-2.079 2.795-2.753s2.514-1.011 4.095-1.011h1.977v5.281h-2.372c-1.883 0-3.427.656-4.631 1.966z"/></svg>