<svg xmlns="http://www.w3.org/2000/svg" width="185" height="40" fill="none" xmlns:v="https://vecta.io/nano"><path d="M23.901 15.011c-.302-.975-1.184-3.167-1.425-4.785-.53-3.584 1.32-5.944 3.019-6.485 1.907-.539 2.652.431 3.39 2.685.954 3.433 1.061 7.931.74 14.371-.417 8.797-4.763 19.42-15.565 19.2C4.735 39.79.609 33.673.18 24.341c-.203-4.399.108-8.797 1.907-15.016.954-3.33 1.806-4.516 4.766-5.154 2.327-.431 2.118 2.034 1.591 4.94-1.16 6.433-1.699 9.539-1.27 16.837.415 7.724 3.918 10.73 7.732 10.73 5.72.111 8.261-4.716 9.325-11.696.839-5.576.206-8.258-.329-9.972zm121.968 7.618c2.227 0 2.866 2.668 2.334 4.284-.532 1.606-2.436 3.438-5.4 3.972-.638-1.613-.957-8.256 3.066-8.256zm-41.408 3.636c0-1.816-.959-3.32-2.114-3.32-.965 0-3.181 1.069-3.181 4.503 0 2.691.944 3.967 1.377 4.514 3.063-.97 3.918-3.551 3.918-5.698zm-32.95-21.88c-.149-1.721-1.481-2.892-3.283-2.892-2.01 0-3.903 2.136-3.702 4.82.129 1.769 1.159 3.224 3.182 3.224 2.322.002 4.016-2.68 3.803-5.152zm17.227 6.301c-.184-3-.901-4.354-2.492-4.243-2.109.129-3.084 6.85-2.653 13.916.275 4.61.953 5.32 1.584 5.275 1.167-.071 3.966-8.307 3.561-14.948zm70.267 11.293c-1.313 5.515-5.293 13.629-11.231 13.629-1.375 0-3.812-.541-3.812-1.935 0-1.504 9.328-1.71 9.328-8.903 0-2.678-2.435-6.438-6.04-6.438-4.766 0-9.415 5.261-9.415 12.555 0 6.539 4.011 8.685 8.035 8.685 6.994 0 11.232-5.797 13.455-10.62 1.064 3.219 1.688 10.62 4.347 10.62 1.055 0 1.802-.537 3.074-3.429 3.17-7.192 6.246-15.452 10.485-15.452 1.584 0 .635 2.903 4.447 2.903 1.797 0 3.063-1.502 3.063-3.226 0-2.47-2.221-4.394-5.607-4.394-9.96 0-12.071 15.127-13.662 15.127-2.65 0-1.802-12.124-3.712-12.124-1.696-.002-2.528 2.044-2.755 3.002zM74.268 34.85c1.588 0 4.318-.522 6.467-4.007-1.229-2.764-2.106-8.348-2.228-10.382C77.876 10.062 81.832.28 86.162.009c3.175-.195 5.715 2.849 6.007 7.78.781 12.958-3.481 18.367-5.614 23.034.36 1.809 3.391 4.889 6.251 4.889 1.056 0 2.332-.537 2.654-.972a10.76 10.76 0 0 1-.429-3.11c0-7.509 4.768-13.841 8.901-13.841 3.283 0 5.19 4.398 5.19 7.3 0 3.428-2.863 6.223-7.097 8.904.745.746 2.114 1.288 3.285 1.288 6.043 0 9.205-7.405 11.546-14.166.422-1.29 1.168-3.11 2.648-3.11 2.542 0 3.606 16.95 7.831 16.95 1.808 0 3.287-3.758 3.287-6.647 0-2.148-.741-2.364-.741-5.475 0-3.429 1.802-6.323 4.244-6.323 1.481 0 2.017 1.495 2.017 3.315 0 6.867-4.88 19.636-12.073 19.636-5.411 0-4.989-9.442-6.894-9.442-2.128 0-5.094 9.548-15.571 9.548-1.702 0-3.499-.857-4.979-2.578-2.538 1.721-4.663 2.472-7.1 2.472-3.915 0-5.614-4.078-7.198-4.078-1.91 0-4.023 4.184-10.385 4.184-5.084 0-5.932-6.859-7.728-6.859-1.593 0-4.028 6.859-6.675 6.859-4.456 0-5.4-11.905-9.327-11.905-3.07 0-12.776 12.091-15.411 11.814-1.059-.111-1.505-.913-1.394-1.987.149-1.484 1.411-5.458 1.922-7.337.857-3.262 1.643-6.838 2.082-7.978.436-1.151 1.612-1.971 2.556-1.882.475.045.618.944.765 1.686.536 2.652 1.282 5.357 2.125 5.357 1.488 0 6.402-9.549 9.261-9.549 3.501 0 3.92 15.023 8.685 15.023 1.593 0 2.761-1.928 3.817-4.295.108-3.975 1.167-9.649 4.344-9.649 2.226 0 3.287 5.037 1.692 9.442-.003 5.253 3.383 6.541 5.612 6.541z" fill="#afaed5"/></svg>